<svg width="84" height="84" viewBox="0 0 84 84" fill="none" xmlns="http://www.w3.org/2000/svg">
<path fill-rule="evenodd" clip-rule="evenodd" d="M48.856 64.4866C50.1812 64.4596 51.5741 64.419 53.0345 64.3649C53.0334 64.3624 53.0323 64.3599 53.0312 64.3573C55.8157 64.25 58.562 64.1043 61.2699 63.9202C64.0556 63.7309 66.0704 63.474 67.3145 63.1494C68.7209 62.7708 69.9379 62.0676 70.9657 61.0399C71.9934 60.0122 72.6966 58.7951 73.0752 57.3888C73.3998 56.1447 73.6567 54.6301 73.846 52.8451C74.0353 51.0601 74.1841 49.3563 74.2923 47.7335C74.3756 46.2333 74.4268 44.717 74.446 43.1847C74.4488 43.1859 74.4517 43.1871 74.4545 43.1883V41.809C74.4545 40.801 74.4408 39.7999 74.4134 38.8056C74.3863 37.8258 74.346 36.8526 74.2923 35.886C74.1841 34.2633 74.0353 32.5595 73.846 30.7745C73.6567 28.9895 73.3998 27.4749 73.0752 26.2308C72.6966 24.8245 71.9934 23.6074 70.9657 22.5797C69.938 21.552 68.7209 20.8488 67.3145 20.4701C66.0705 20.1456 64.0556 19.8887 61.2699 19.6993C58.4842 19.51 55.658 19.3613 52.7911 19.2531C49.4375 19.1449 45.8405 19.0908 42 19.0908C41.6219 19.0908 41.2462 19.0913 40.8729 19.0924L38.6734 19.0924C37.6457 19.0924 36.4692 19.1059 35.144 19.133C33.8187 19.16 32.4259 19.2006 30.9654 19.2547C30.9666 19.2572 30.9677 19.2597 30.9688 19.2623C28.1842 19.3696 25.438 19.5153 22.7301 19.6993C19.9444 19.8887 17.9295 20.1456 16.6855 20.4701C15.2791 20.8488 14.062 21.552 13.0343 22.5797C12.0066 23.6074 11.3034 24.8245 10.9248 26.2308C10.6002 27.4749 10.3433 28.9895 10.154 30.7745C9.96466 32.5595 9.81591 34.2633 9.70773 35.886C9.62438 37.3863 9.57315 38.9025 9.55401 40.4349C9.55116 40.4337 9.5483 40.4325 9.54545 40.4313L9.54545 41.8106C9.54545 43.8119 9.59953 45.7863 9.70772 47.7335C9.8159 49.3563 9.96465 51.0601 10.154 52.8451C10.3433 54.6301 10.6002 56.1447 10.9248 57.3888C11.3034 58.7951 12.0066 60.0122 13.0343 61.0399C14.062 62.0676 15.2791 62.7708 16.6854 63.1494C17.9295 63.474 19.9444 63.7309 22.7301 63.9202C25.5158 64.1096 28.342 64.2583 31.2089 64.3665C34.5625 64.4747 38.1595 64.5288 42 64.5288C42.3779 64.5288 42.7536 64.5282 43.1268 64.5272H45.3266C46.3543 64.5272 47.5308 64.5137 48.856 64.4866Z" fill="white"/>
<path d="M52.3852 41.8106L35.5088 51.5469V32.0742L52.3852 41.8106Z" fill="#777777"/>
</svg>
