<svg width="150" height="19" viewBox="0 0 150 19" fill="none" xmlns="http://www.w3.org/2000/svg">
<g clip-path="url(#clip0_5_527)">
<path d="M41.5839 17.9519C36.5701 17.9519 33.0518 14.4221 33.0518 9.26307C33.0518 4.10402 36.7805 0.68457 41.541 0.68457C43.8805 0.68457 46.3444 1.24069 47.883 3.33878L45.5435 5.69195C44.9326 4.68542 43.4166 3.97993 41.5817 3.97993C39.0114 3.97993 36.7352 6.01367 36.7352 9.26536C36.7352 12.347 38.6313 14.7232 41.7491 14.7232C42.6541 14.7232 44.7199 14.5301 45.9417 12.262L48.469 14.1877C46.5933 17.2694 43.8126 17.9542 41.5794 17.9542L41.5839 17.9519Z" fill="white"/>
<path d="M58.3338 17.9519C53.1933 17.9519 49.632 14.2061 49.632 9.30673C49.632 4.40736 53.1933 0.68457 58.3338 0.68457C63.4744 0.68457 67.0131 4.40736 67.0131 9.30903C67.0131 14.2107 63.6011 17.9542 58.3338 17.9542V17.9519ZM58.3338 3.95695C55.2364 3.95695 53.32 6.37446 53.32 9.30673C53.32 12.239 55.2364 14.7209 58.3338 14.7209C61.4313 14.7209 63.3274 12.2597 63.3274 9.30673C63.3274 6.35378 61.4947 3.95695 58.3338 3.95695Z" fill="white"/>
<path d="M95.7252 17.9519C90.7113 17.9519 87.193 14.4221 87.193 9.26307C87.193 4.10402 90.9217 0.68457 95.6822 0.68457C98.0217 0.68457 100.486 1.24069 102.024 3.33878L99.6847 5.69195C99.0738 4.68542 97.5579 3.97993 95.7229 3.97993C93.1526 3.97993 90.8765 6.01367 90.8765 9.26536C90.8765 12.347 92.7725 14.7232 95.8904 14.7232C96.7954 14.7232 98.8611 14.5301 100.083 12.262L102.61 14.1877C100.735 17.2694 97.9538 17.9542 95.7207 17.9542L95.7252 17.9519Z" fill="white"/>
<path d="M84.3422 0.85498H80.6338V11.0421L72.5066 0.85498H69.8323V17.6742H73.561V7.36067L81.7244 17.6742H84.3422V0.85498Z" fill="white"/>
<path d="M105.228 17.6742V0.85498H115.541V3.91594H108.936V7.57438H114.867V10.6124H108.936V14.4845H116.048V17.6719H105.228V17.6742Z" fill="white"/>
<path d="M125.014 11.3845H123.012V17.6765H119.304V0.85498H124.781C128.931 0.85498 130.954 3.0381 130.954 5.86236C130.954 9.04971 128.3 11.3845 125.012 11.3845H125.014ZM124.53 3.91594H123.014V8.17416H124.553C126.596 8.17416 127.25 7.27564 127.25 5.88534C127.25 4.75242 126.596 3.91594 124.532 3.91594H124.53Z" fill="white"/>
<path d="M139.696 3.91594V17.6765H135.988V3.91594H132.112V0.85498H143.574V3.91594H139.698H139.696Z" fill="white"/>
<path d="M24.0286 17.6743H29.7122L26.8704 11.1548L24.0286 17.6743Z" fill="white"/>
<path d="M144.319 17.6743H150L147.158 11.1548L144.319 17.6743Z" fill="white"/>
<path d="M17.4128 19L25.3952 0.687107H21.5398L17.268 10.4881L12.6976 0L8.12719 10.4881L3.85544 0.687107H0L7.98012 19L12.6976 8.17864L17.4128 19Z" fill="white"/>
</g>
<defs>
<clipPath id="clip0_5_527">
<rect width="150" height="19" fill="white"/>
</clipPath>
</defs>
</svg>
