<svg width="84" height="84" viewBox="0 0 84 84" fill="none" xmlns="http://www.w3.org/2000/svg">
<rect x="15.2718" y="15.2729" width="53.4545" height="53.4545" rx="7" fill="white"/>
<path d="M61.4847 20.2559C59.0167 20.2559 57.0315 22.1315 57.0315 24.4634C57.0315 26.7954 59.0167 28.671 61.4847 28.671C63.9527 28.671 65.9378 26.7954 65.9378 24.4634C65.9378 22.1315 63.9527 20.2559 61.4847 20.2559Z" fill="#777777"/>
<path d="M41.6597 25.6567C31.3316 25.6567 22.9082 33.5903 22.9082 43.3742C22.9082 53.1581 31.3048 61.0917 41.6597 61.0917C52.0146 61.0917 60.4112 53.1581 60.4112 43.3742C60.4112 33.5903 52.0146 25.6567 41.6597 25.6567ZM41.6597 54.7043C35.0336 54.7043 29.6415 49.6096 29.6415 43.3489C29.6415 37.0882 35.0336 32.0188 41.6597 32.0188C48.2858 32.0188 53.651 37.1135 53.651 43.3489C53.651 49.5842 48.2589 54.7043 41.6597 54.7043Z" fill="#777777"/>
</svg>
