<svg width="84" height="84" viewBox="0 0 84 84" fill="none" xmlns="http://www.w3.org/2000/svg">
<path fill-rule="evenodd" clip-rule="evenodd" d="M40.482 52.3454C40.4449 52.4849 40.3892 52.607 40.3521 52.7465C38.3669 60.0891 38.1442 61.7111 36.0848 65.1295C35.1014 66.7515 34.0068 68.2863 32.8008 69.7513C32.6709 69.9257 32.541 70.135 32.2627 70.0826C31.9659 70.0303 31.9473 69.7687 31.9102 69.542C31.5762 67.3096 31.4093 65.0772 31.4835 62.8273C31.5948 59.8973 31.9659 58.8857 35.992 42.9972C36.0477 42.753 35.992 42.5611 35.8992 42.3344C34.9344 39.8927 34.7489 37.4161 35.5838 34.9047C37.4021 29.4806 43.9515 29.062 45.0833 33.5443C45.7883 36.3174 43.933 39.9276 42.4858 45.2819C41.2984 49.6944 46.8273 52.8337 51.5585 49.6072C55.9186 46.6423 57.607 39.509 57.2916 34.4512C56.6608 24.3879 44.9163 22.2078 37.4577 25.4518C28.9231 29.1666 26.9749 39.1253 30.8341 43.6599C31.3165 44.2355 31.7061 44.5843 31.5391 45.1773C31.2979 46.0842 31.0753 47.0085 30.797 47.9155C30.5929 48.5956 29.9992 48.8398 29.2756 48.5608C27.847 48.0201 26.6781 47.1655 25.7133 46.0493C22.4293 42.2298 21.5016 34.6954 25.8246 28.3121C30.63 21.2311 39.5543 18.3708 47.6994 19.2429C57.44 20.2893 63.5813 26.5331 64.7316 33.6315C65.2511 36.858 64.8801 44.8284 60.0561 50.4618C54.5086 56.9323 45.51 57.3683 41.354 53.3918C41.0386 53.0954 40.7788 52.7291 40.4634 52.3628L40.482 52.3454Z" fill="white"/>
</svg>
