<svg width="80" height="80" viewBox="0 0 80 80" fill="none" xmlns="http://www.w3.org/2000/svg">
<mask id="mask0_402_1143" style="mask-type:alpha" maskUnits="userSpaceOnUse" x="0" y="0" width="80" height="80">
<path d="M40 80C62.0914 80 80 62.0914 80 40C80 17.9086 62.0914 0 40 0C17.9086 0 0 17.9086 0 40C0 62.0914 17.9086 80 40 80Z" fill="white"/>
</mask>
<g mask="url(#mask0_402_1143)">
<path d="M74.1463 77.2682C71.2195 76.0975 69.0731 74.1463 66.9268 72.3902C64.9756 70.439 63.0243 68.2926 61.2682 66.1463C59.5122 63.8048 57.9512 61.6585 56.7804 58.5365C56 56.1951 54.6341 54.0487 53.2683 52.0975C51.7073 50.1463 49.9512 48.1951 48.1951 46.439C47.8048 46.0487 47.2195 45.6585 46.8292 45.2682L45.2683 43.9024C44.0975 42.9268 43.1219 41.9512 42.1463 40.9756C38.2439 36.878 34.7317 32.7804 31.2195 28.4877C30.0487 26.9268 30.2439 24.7804 31.8048 23.6097C33.1707 22.6341 34.9268 22.6341 36.0975 23.6097C39.4146 26.3414 43.317 28.878 47.0243 30.8292C48 31.2195 48.7804 31.6097 49.9512 31.9999C51.1219 32.3902 52.2926 32.9756 53.2683 33.3658C55.4146 34.3414 57.5609 35.5121 59.7073 36.6829C67.9024 41.5609 74.9268 48.1951 80.3902 55.9999C80.7804 56.5853 80.7804 57.5609 80 57.9512C79.4146 58.3414 78.439 58.3414 78.0487 57.756C72.3902 50.7316 65.1707 45.0731 57.3658 41.1707C55.4146 40.1951 53.4634 39.2195 51.317 38.6341C50.3414 38.2438 49.1707 37.8536 48.1951 37.6585C47.2195 37.4634 45.8536 37.0731 44.6829 36.4877C40 34.5365 35.9024 32.1951 32 29.4634L36.878 24.5853C40 28.878 43.317 33.1707 46.6341 37.0731C47.4146 38.0487 48.3902 39.0243 49.1707 39.8048L50.7317 41.1707C51.317 41.756 51.7073 42.1463 52.2926 42.7317C54.2439 44.878 56 47.0243 57.5609 49.3658C59.1219 51.7073 60.4878 54.439 61.2682 57.3658C61.8536 59.5121 63.2195 61.8536 64.5853 63.9999C65.9512 66.1463 67.7073 68.2926 69.4634 70.0487C71.2195 71.9999 73.1707 73.756 75.317 74.7317H75.5122C76.2926 75.1219 76.4878 75.9024 76.2926 76.6829C75.5122 77.2682 74.7317 77.6585 74.1463 77.2682Z" fill="#414042"/>
<path d="M11.1219 -0.780545C12.878 2.14628 15.0244 5.07311 17.561 7.6097C19.9024 10.1463 22.6341 12.4877 25.7561 13.6585C32.3902 16.1951 39.2195 18.3414 46.0488 19.5121C47.8049 19.9024 49.3659 20.0975 51.122 20.2926L53.8537 20.6829C54.8293 20.878 55.8049 21.0731 56.5854 21.4634C60.2927 22.6341 63.8049 24.1951 66.7317 26.3414C72.9756 30.439 78.0488 35.7073 82.5366 41.3658L80 42.5365C79.8049 41.756 79.4146 40.5853 79.0244 39.6097C78.6342 38.6341 78.0488 37.6585 77.6585 36.6829C76.6829 34.7316 75.3171 32.9756 74.1463 31.0243C71.6098 27.5121 68.4878 23.9999 65.7561 20.4877C63.0244 16.9756 59.3171 13.6585 57.561 9.17067C55.4146 4.87799 53.8537 0.585309 52.878 -3.9025C52.6829 -4.68298 53.0732 -5.46347 53.8537 -5.65859C54.6341 -5.85372 55.2195 -5.46347 55.6098 -4.87811C57.561 -0.780545 59.3171 3.31701 61.4634 7.02433C63.8049 10.7316 65.561 14.8292 68.6829 18.1463C71.4146 21.6585 74.3415 25.1707 76.8781 29.0731C78.2439 31.0243 79.4146 32.9755 80.3903 35.1219C80.9756 36.0975 81.3659 37.2682 81.9512 38.439C82.3415 39.6097 82.7317 40.5853 82.9268 42.1463C83.122 42.9268 82.5366 43.7073 81.7561 43.7073C81.3659 43.7073 80.9756 43.7073 80.5854 43.317L80.3903 43.1219C75.122 38.439 69.8537 33.756 64 30.2438C61.0732 28.4877 58.1463 27.1219 55.0244 26.1463C54.2439 25.9512 53.4634 25.756 52.6829 25.5609L50.1463 24.9756C48.3902 24.5853 46.6341 24.1951 44.878 23.6097C37.8537 21.4634 31.6098 17.756 25.1707 15.0243C21.6585 13.6585 18.9268 11.1219 16.3902 8.58531C13.8537 6.04872 11.3171 3.51214 8.97561 0.780431C8.39024 0.195065 8.39024 -0.780545 9.17073 -1.36591C9.75609 -1.95128 10.7317 -1.95128 11.3171 -1.17079C11.1219 -0.975667 11.1219 -0.975667 11.1219 -0.780545Z" fill="#414042"/>
<path d="M22.2439 -5.0732C23.6097 -2.53662 25.3658 -0.195155 27.3171 1.95119C29.2683 4.09753 31.4146 5.85362 33.7561 6.63411C36.2927 7.4146 39.0244 7.60972 42.1463 7.80484C43.7073 7.80484 45.2683 7.99997 47.0244 8.39021C48.7805 8.78045 50.5366 9.56094 52.0976 10.7317L48.7805 14.6341C47.2195 12.878 45.6585 11.317 44.2927 9.56094C42.9268 7.80484 41.561 6.04875 40.1951 4.09753C37.6585 0.39021 35.5122 -3.70735 34.3415 -8.19516C34.1463 -8.97564 34.5366 -9.75613 35.3171 -9.95125C36.0976 -10.1464 36.878 -9.75613 37.0732 -8.97564C38.439 -5.0732 40.7805 -1.56101 43.5122 1.75606C44.878 3.31704 46.2439 4.87802 47.6098 6.43899C48.9756 7.99997 50.5366 9.36582 52.0976 10.7317C53.2683 11.7073 53.2683 13.2683 52.2927 14.439C51.5122 15.4146 49.9512 15.6097 48.7805 14.8292L48.5854 14.6341C46.8293 13.0731 44.4878 12.4878 41.561 12.2927C38.6341 11.9024 35.3171 11.7073 32.1951 10.3414C30.439 9.75606 29.0732 8.58533 27.9024 7.60972C26.7317 6.43899 25.561 5.26826 24.5854 4.09753C22.6341 1.56094 20.878 -0.975643 19.5122 -3.90247C19.1219 -4.68296 19.5122 -5.46345 20.0976 -5.85369C21.0732 -6.04881 21.8537 -5.85369 22.2439 -5.0732Z" fill="#414042"/>
<path d="M5.46342 7.60975C9.17073 8.97561 12.6829 10.9268 16 13.2683C17.561 14.439 19.122 15.8049 20.6829 17.1707C22.0488 18.5366 23.6098 20.4878 24.5854 22.0488C26.7317 25.3659 28.4878 28.878 30.2439 32.3902C32 35.7073 33.561 39.2195 35.5122 42.1463C37.4634 45.0732 40.1951 47.8049 42.5366 51.1219C44.8781 54.2439 47.0244 57.7561 48.7805 61.2683C50.3415 64.9756 51.7073 68.2927 53.6585 71.4146C55.6098 74.5366 58.1463 77.4634 60.4878 80.5854C61.0732 81.1707 60.878 82.1463 60.2927 82.5366C59.7073 82.9268 58.9268 82.9268 58.3415 82.5366L58.1463 82.3415C52.4878 77.2683 47.0244 71.8049 41.561 67.3171C40.1951 66.1463 38.8293 65.1707 37.4634 64.3902C36.0976 63.6098 34.5366 63.0244 32.7805 62.439C31.0244 61.8537 29.0732 61.2683 27.122 60.2927C25.1707 59.3171 23.4146 57.7561 22.0488 56C20.6829 54.2439 19.5122 52.2927 18.7317 50.7317C17.7561 48.9756 16.9756 47.2195 16.1951 45.4634C15.4146 43.7073 14.6341 41.9512 13.4634 40.3902C13.0732 39.6098 12.4878 39.0244 11.7073 38.439C11.3171 38.0488 11.122 37.8537 10.7317 37.4634C10.3415 37.0732 10.1463 37.0732 9.95122 36.878C8.97561 36.2927 7.41464 35.7073 5.85366 34.9268L0.780492 32.7805C-0.975606 32 -2.7317 31.0244 -4.4878 29.8537C-6.2439 28.6829 -8.19512 27.1219 -8.97561 24.5854C-9.17073 23.8049 -8.78048 23.0244 -8 22.8293C-7.60975 22.6341 -7.02439 22.8293 -6.63414 23.0244L-6.2439 23.2195C-3.90244 24.7805 -0.390241 25.3659 3.31708 26.5366C5.07317 27.1219 7.02439 27.7073 8.97561 28.4878C10.9268 29.2683 12.8781 30.2439 14.6341 32.3902C17.7561 36.2927 17.9512 40.5854 19.5122 43.9024C20.2927 45.6585 21.0732 47.2195 22.2439 48.7805C23.2195 50.3415 24.3902 51.7073 25.7561 52.6829C28.2927 54.6341 31.2195 55.2195 35.122 56.3902C37.0732 56.9756 39.0244 57.7561 40.9756 58.9268C42.9268 60.0976 44.6829 61.4634 46.0488 62.6341C48.9756 65.3659 51.5122 68.2927 54.0488 71.2195C56.5854 74.1463 58.9268 77.2683 61.0732 80.3902L58.7317 82.1463C56.5854 79.0244 54.0488 76.2927 51.7073 72.7805C49.561 69.4634 47.8049 65.7561 46.2439 62.439C44.4878 59.122 42.3415 56.1951 40 53.4634C37.4634 50.7317 34.7317 48.1951 32 44.878C27.122 38.2439 24 31.2195 20.0976 25.1707C19.122 23.6098 18.1463 22.439 16.9756 21.0732C15.8049 19.7073 14.439 18.5366 13.0732 17.3659C10.3415 14.8293 7.41464 12.4878 4.68293 9.95122C4.09756 9.36585 3.90244 8.39024 4.48781 7.80488C4.29269 7.60975 4.87805 7.41463 5.46342 7.60975Z" fill="#414042"/>
<path d="M-2.92686 38.439C-0.585401 39.0244 1.56094 40 3.70728 41.1707C5.85362 42.3415 7.60972 43.9024 9.36582 45.6585C11.1219 47.4146 12.4878 49.7561 13.6585 51.7073C14.6341 53.8537 15.4146 55.8049 16.3902 57.7561C18.1463 61.6585 19.9024 65.1707 22.2439 68.4878C24.5853 71.8049 27.317 74.9268 30.439 77.8537C31.0244 78.439 31.0244 79.4146 30.439 80C30.0487 80.3902 29.4634 80.5854 28.878 80.3903C24.5853 78.8293 20.6829 76.0976 17.3658 72.5854C14.0487 69.0732 11.5122 65.1707 9.56094 61.0732C8.58533 59.122 7.60972 56.9756 6.82923 55.2195C6.04875 53.2683 5.26826 51.9024 4.09753 50.3415C1.95118 47.2195 -0.975645 44.2927 -4.0976 41.3659C-4.68296 40.7805 -4.68296 39.8049 -4.0976 39.2195C-3.90247 38.439 -3.31711 38.439 -2.92686 38.439Z" fill="#414042"/>
</g>
</svg>
