<svg width="45" height="32" viewBox="0 0 45 32" fill="none" xmlns="http://www.w3.org/2000/svg">
<g id="Card_mc_symbol">
<path id="Vector" d="M45 0H0V32H45V0Z" fill="white"/>
<g id="credit_card">
<mask id="mask0_4631_8865" style="mask-type:alpha" maskUnits="userSpaceOnUse" x="6" y="0" width="33" height="32">
<rect id="Bounding box" x="6.5" width="32" height="32" fill="#D9D9D9"/>
</mask>
<g mask="url(#mask0_4631_8865)">
<path id="credit_card_2" d="M34.5 8.8218V23.1808C34.5 23.7945 34.2944 24.3069 33.8833 24.718C33.4722 25.1291 32.9598 25.3346 32.3462 25.3346H12.6538C12.0402 25.3346 11.5278 25.1291 11.1167 24.718C10.7056 24.3069 10.5 23.7945 10.5 23.1808V8.8218C10.5 8.20814 10.7056 7.69575 11.1167 7.28464C11.5278 6.87352 12.0402 6.66797 12.6538 6.66797H32.3462C32.9598 6.66797 33.4722 6.87352 33.8833 7.28464C34.2944 7.69575 34.5 8.20814 34.5 8.8218ZM11.8333 11.7449H33.1667V8.8218C33.1667 8.61669 33.0812 8.42866 32.9103 8.2577C32.7393 8.08677 32.5513 8.0013 32.3462 8.0013H12.6538C12.4487 8.0013 12.2607 8.08677 12.0897 8.2577C11.9188 8.42866 11.8333 8.61669 11.8333 8.8218V11.7449ZM11.8333 14.9244V23.1808C11.8333 23.3859 11.9188 23.5739 12.0897 23.7449C12.2607 23.9158 12.4487 24.0013 12.6538 24.0013H32.3462C32.5513 24.0013 32.7393 23.9158 32.9103 23.7449C33.0812 23.5739 33.1667 23.3859 33.1667 23.1808V14.9244H11.8333Z" fill="#1C1B1F"/>
</g>
</g>
</g>
</svg>
