<svg width="22" height="22" viewBox="0 0 22 22" fill="none" xmlns="http://www.w3.org/2000/svg">
<path fill-rule="evenodd" clip-rule="evenodd" d="M11.2499 21.7167C5.47449 21.7167 0.783321 17.0766 0.783321 11.3663C0.783321 5.65601 5.47447 1.01597 11.2499 1.01597C12.9488 1.01597 14.6568 1.50411 16.2396 2.42622L16.6637 2.68561L17.191 3.04006L16.9134 1.66675C16.8505 1.35286 16.9995 1.03702 17.2775 0.880617L17.3998 0.824764L17.5186 0.79406C17.8657 0.726591 18.2249 0.926745 18.3522 1.26357L18.3892 1.39498L19.0972 4.89933C19.1374 5.10606 19.0853 5.32141 18.9537 5.48911C18.8488 5.62277 18.7005 5.71692 18.5353 5.75567L18.3929 5.77572L14.9031 6.0026C14.5988 6.05376 14.3124 5.93799 14.1451 5.70758C13.9783 5.478 13.959 5.1748 14.0952 4.92648C14.2095 4.71816 14.4218 4.57191 14.6358 4.54442L14.7522 4.54078L16.5627 4.42683L16.0208 4.04084C14.7845 3.21641 13.4445 2.7005 12.1108 2.54351L11.6659 2.50459L11.2556 2.49256C6.29109 2.49248 2.2805 6.45938 2.2805 11.3663C2.2805 16.2733 6.29111 20.2402 11.2499 20.2402C16.2076 20.2402 20.2193 16.2743 20.2193 11.373C20.2136 10.9725 20.5639 10.6207 20.9679 10.6207C21.3709 10.6207 21.7221 10.9717 21.7167 11.3635C21.7167 17.0766 17.0253 21.7167 11.2499 21.7167Z" fill="#131314"/>
</svg>
