<svg width="20" height="20" viewBox="0 0 20 20" fill="none" xmlns="http://www.w3.org/2000/svg">
<mask id="mask0_1722_336" style="mask-type:alpha" maskUnits="userSpaceOnUse" x="0" y="0" width="20" height="20">
<rect width="20" height="20" fill="#D9D9D9"/>
</mask>
<g mask="url(#mask0_1722_336)">
<path d="M10 18.3254C7.83285 16.3459 6.22207 14.5412 5.15236 12.9114C4.02815 11.1986 3.5 9.67078 3.5 8.3168C3.5 6.18348 4.16085 4.54372 5.44482 3.33838C6.75713 2.10644 8.26837 1.5 10 1.5C11.7316 1.5 13.2429 2.10644 14.5552 3.33838C15.8391 4.54372 16.5 6.18348 16.5 8.3168C16.5 9.67078 15.9719 11.1986 14.8476 12.9115C13.7779 14.5413 12.1671 16.3459 10 18.3254Z" stroke="black"/>
<path d="M9.53364 9.74538H10.4664V5H9.53364V9.74538ZM10 11.5C10.1334 11.5 10.2501 11.4568 10.3501 11.3703C10.45 11.2839 10.5 11.183 10.5 11.0676C10.5 10.9523 10.45 10.8514 10.3501 10.765C10.2501 10.6785 10.1334 10.6353 10 10.6353C9.86659 10.6353 9.7499 10.6785 9.64994 10.765C9.54998 10.8514 9.5 10.9523 9.5 11.0676C9.5 11.183 9.54998 11.2839 9.64994 11.3703C9.7499 11.4568 9.86659 11.5 10 11.5Z" fill="#1C1B1F"/>
</g>
</svg>
