<svg width="80" height="80" viewBox="0 0 80 80" fill="none" xmlns="http://www.w3.org/2000/svg">
<mask id="mask0_624_1265" style="mask-type:alpha" maskUnits="userSpaceOnUse" x="0" y="0" width="80" height="80">
<path d="M40 80C62.0914 80 80 62.0914 80 40C80 17.9086 62.0914 0 40 0C17.9086 0 0 17.9086 0 40C0 62.0914 17.9086 80 40 80Z" fill="white"/>
</mask>
<g mask="url(#mask0_624_1265)">
<path d="M40 79.5C61.8152 79.5 79.5 61.8152 79.5 40C79.5 18.1848 61.8152 0.5 40 0.5C18.1848 0.5 0.5 18.1848 0.5 40C0.5 61.8152 18.1848 79.5 40 79.5Z" stroke="#DDDFE2"/>
<path d="M-14.5262 19.1832C-15.47 18.2386 -16 16.9587 -16 15.6239C-16 14.289 -15.47 13.0092 -14.5262 12.0655L12.0088 -14.4696C12.9475 -15.4377 14.2349 -15.988 15.5832 -15.9981C16.9314 -16.009 18.2274 -15.4773 19.1804 -14.5243C20.1334 -13.5713 20.6651 -12.2753 20.655 -10.9271C20.6441 -9.57886 20.0938 -8.29126 19.1265 -7.35269L-7.41069 19.1845C-8.35444 20.1282 -9.63449 20.6591 -10.9691 20.6591C-12.3037 20.6591 -13.5838 20.1282 -14.5275 19.1845L-14.5262 19.1832ZM-10.9678 52.6901C-9.63308 52.6917 -8.35228 52.1617 -7.40939 51.2163L51.1613 -7.35444C52.1287 -8.29314 52.6789 -9.58061 52.6899 -10.9288C52.7 -12.277 52.1683 -13.573 51.2153 -14.5261C50.2623 -15.4791 48.9662 -16.0108 47.618 -15.9998C46.2698 -15.9897 44.9822 -15.4395 44.0436 -14.4713L-14.5249 44.0973C-15.4687 45.041 -15.9987 46.3211 -15.9987 47.6557C-15.9987 48.9903 -15.4687 50.2704 -14.5249 51.2141C-13.5812 52.1579 -12.3011 52.6887 -10.9665 52.6887L-10.9678 52.6901ZM78.6615 -9.94042C77.7177 -10.8842 76.4377 -11.415 75.103 -11.415C73.7675 -11.415 72.4875 -10.8842 71.5438 -9.94042L-9.99624 71.5996C-10.967 72.5374 -11.5206 73.8266 -11.5324 75.1766C-11.5442 76.5265 -11.0133 77.8249 -10.0586 78.7796C-9.10389 79.7343 -7.80547 80.2652 -6.45553 80.2534C-5.10563 80.2416 -3.81648 79.688 -2.87855 78.7173L78.6614 -2.82273C79.6052 -3.76648 80.136 -5.04653 80.136 -6.38202C80.136 -7.71675 79.6052 -8.99669 78.6614 -9.94044L78.6615 -9.94042ZM76.0738 17.561L17.503 76.1317C16.5357 77.0704 15.9854 78.3579 15.9745 79.7061C15.9644 81.0543 16.4961 82.3503 17.4491 83.3034C18.4021 84.2564 19.6981 84.7881 21.0463 84.7771C22.3946 84.767 23.6822 84.2168 24.6207 83.2486L83.1893 24.68C84.1575 23.7413 84.7077 22.4538 84.7178 21.1056C84.7288 19.7574 84.1971 18.4614 83.2441 17.5084C82.2911 16.5554 80.995 16.0237 79.6468 16.0338C78.2986 16.0447 77.011 16.595 76.0724 17.5623L76.0738 17.561ZM76.0738 49.5946L49.5366 76.1317C48.5692 77.0704 48.019 78.3579 48.0081 79.7061C47.9979 81.0543 48.5297 82.3503 49.4827 83.3034C50.4357 84.2564 51.7317 84.7881 53.0799 84.7771C54.4281 84.767 55.7157 84.2168 56.6543 83.2486L83.1893 56.7136C84.4288 55.4361 84.9015 53.5991 84.4322 51.882C83.9628 50.1647 82.6214 48.8232 80.9042 48.354C79.1877 47.8847 77.3499 48.3574 76.0726 49.5961L76.0738 49.5946Z" fill="#1B1B1D"/>
</g>
</svg>
