<svg width="78" height="78" viewBox="0 0 78 78" fill="none" xmlns="http://www.w3.org/2000/svg">
<mask id="mask0_402_1528" style="mask-type:alpha" maskUnits="userSpaceOnUse" x="0" y="0" width="78" height="78">
<path d="M39 78C60.5391 78 78 60.5391 78 39C78 17.4609 60.5391 0 39 0C17.4609 0 0 17.4609 0 39C0 60.5391 17.4609 78 39 78Z" fill="white"/>
</mask>
<g mask="url(#mask0_402_1528)">
<path d="M40.0227 42.9852C41.7763 42.9852 43.198 41.5636 43.198 39.8099C43.198 38.0563 41.7763 36.6346 40.0227 36.6346C38.269 36.6346 36.8474 38.0563 36.8474 39.8099C36.8474 41.5636 38.269 42.9852 40.0227 42.9852Z" fill="#414042"/>
<path fill-rule="evenodd" clip-rule="evenodd" d="M43.0216 29.7549C43.0216 31.519 41.6103 39.8099 39.8463 39.8099C38.0823 39.8099 36.671 31.519 36.671 29.7549C36.671 27.9909 38.0823 26.5797 39.8463 26.5797C41.6103 26.5797 43.0216 27.9909 43.0216 29.7549Z" stroke="#414042" stroke-width="1.87859" stroke-linecap="round" stroke-linejoin="round"/>
<path fill-rule="evenodd" clip-rule="evenodd" d="M31.3789 33.6358C32.9665 34.165 40.5519 38.0459 40.0226 39.8099C39.4934 41.3976 31.026 40.1627 29.4384 39.6335C27.8508 39.1043 26.9688 37.3403 27.498 35.7526C27.8508 33.9886 29.6148 33.1066 31.3789 33.6358Z" stroke="#414042" stroke-width="1.87859" stroke-linecap="round" stroke-linejoin="round"/>
<path fill-rule="evenodd" clip-rule="evenodd" d="M31.3788 46.1606C32.4373 44.7494 38.435 38.7516 39.8462 39.8101C41.2575 40.8685 37.3766 48.4538 36.4946 49.8651C35.4361 51.2763 33.4957 51.6291 32.0845 50.5707C30.6732 49.5123 30.4968 47.5718 31.3788 46.1606Z" stroke="#414042" stroke-width="1.87859" stroke-linecap="round" stroke-linejoin="round"/>
<path fill-rule="evenodd" clip-rule="evenodd" d="M43.3743 49.8651C42.3159 48.4538 38.6114 40.8685 40.0226 39.8101C41.4338 38.7516 47.4316 44.7494 48.49 46.1606C49.5484 47.5718 49.1956 49.5123 47.7844 50.5707C46.3732 51.4527 44.4327 51.2763 43.3743 49.8651Z" stroke="#414042" stroke-width="1.87859" stroke-linecap="round" stroke-linejoin="round"/>
<path fill-rule="evenodd" clip-rule="evenodd" d="M50.6068 39.6336C49.0192 40.1628 40.5518 41.3976 40.0226 39.81C39.4934 38.2223 47.0788 34.1651 48.6664 33.6358C50.254 33.1066 52.0181 33.9887 52.5473 35.5763C53.0765 37.3403 52.1945 39.1044 50.6068 39.6336Z" stroke="#414042" stroke-width="1.87859" stroke-linecap="round" stroke-linejoin="round"/>
<path d="M13.5621 20.5819C15.3158 20.5819 16.7374 19.1603 16.7374 17.4067C16.7374 15.653 15.3158 14.2314 13.5621 14.2314C11.8085 14.2314 10.3868 15.653 10.3868 17.4067C10.3868 19.1603 11.8085 20.5819 13.5621 20.5819Z" fill="#414042"/>
<path fill-rule="evenodd" clip-rule="evenodd" d="M16.7374 7.17527C16.7374 8.93931 15.3262 17.2303 13.5621 17.2303C11.7981 17.2303 10.3868 8.93931 10.3868 7.17527C10.3868 5.41123 11.7981 4 13.5621 4C15.3262 4 16.7374 5.41123 16.7374 7.17527Z" stroke="#414042" stroke-width="1.87859" stroke-linecap="round" stroke-linejoin="round"/>
<path fill-rule="evenodd" clip-rule="evenodd" d="M4.91828 11.2326C6.50592 11.7618 14.0913 15.6427 13.5621 17.4067C13.0329 18.9944 4.56548 17.7595 2.97784 17.2303C1.39021 16.7011 0.508187 14.9371 1.0374 13.3495C1.56661 11.5854 3.33065 10.7034 4.91828 11.2326Z" stroke="#414042" stroke-width="1.87859" stroke-linecap="round" stroke-linejoin="round"/>
<path fill-rule="evenodd" clip-rule="evenodd" d="M5.09466 23.5809C6.15309 22.1697 12.1508 16.1719 13.562 17.2303C14.9733 18.2888 11.0924 25.8741 10.2104 27.2854C9.32836 28.6966 7.21151 29.0494 5.80028 27.991C4.38905 26.9326 4.03624 24.9921 5.09466 23.5809Z" stroke="#414042" stroke-width="1.87859" stroke-linecap="round" stroke-linejoin="round"/>
<path fill-rule="evenodd" clip-rule="evenodd" d="M16.9137 27.2854C15.8553 25.8741 12.1508 18.2888 13.562 17.2303C14.9733 16.1719 20.971 22.1697 22.0294 23.5809C23.0879 24.9921 22.735 26.9326 21.3238 27.991C19.9126 29.0494 17.9721 28.6966 16.9137 27.2854Z" stroke="#414042" stroke-width="1.87859" stroke-linecap="round" stroke-linejoin="round"/>
<path fill-rule="evenodd" clip-rule="evenodd" d="M24.1463 17.2302C22.5586 17.7594 14.0913 18.9942 13.562 17.4066C13.0328 15.819 20.6182 11.7617 22.2058 11.2325C23.7935 10.7033 25.5575 11.5853 26.0867 13.1729C26.6159 14.9369 25.7339 16.701 24.1463 17.2302Z" stroke="#414042" stroke-width="1.87859" stroke-linecap="round" stroke-linejoin="round"/>
<path d="M66.3069 20.5819C68.0605 20.5819 69.4821 19.1603 69.4821 17.4067C69.4821 15.653 68.0605 14.2314 66.3069 14.2314C64.5532 14.2314 63.1316 15.653 63.1316 17.4067C63.1316 19.1603 64.5532 20.5819 66.3069 20.5819Z" fill="#414042"/>
<path fill-rule="evenodd" clip-rule="evenodd" d="M69.4821 7.17527C69.4821 8.93931 68.0709 17.2303 66.3069 17.2303C64.5428 17.2303 63.1316 8.93931 63.1316 7.17527C63.1316 5.41123 64.5428 4 66.3069 4C68.0709 4 69.4821 5.41123 69.4821 7.17527Z" stroke="#414042" stroke-width="1.87859" stroke-linecap="round" stroke-linejoin="round"/>
<path fill-rule="evenodd" clip-rule="evenodd" d="M57.663 11.2326C59.2507 11.7618 66.836 15.6427 66.3068 17.4067C65.7776 18.9944 57.3102 17.7595 55.7226 17.2303C54.135 16.7011 53.2529 14.9371 53.7821 13.3495C54.3114 11.5854 56.0754 10.7034 57.663 11.2326Z" stroke="#414042" stroke-width="1.87859" stroke-linecap="round" stroke-linejoin="round"/>
<path fill-rule="evenodd" clip-rule="evenodd" d="M57.8394 23.5809C58.8978 22.1697 64.8956 16.1719 66.3068 17.2303C67.718 18.2888 63.8371 25.8741 62.9551 27.2854C61.8967 28.6966 59.9563 29.0494 58.545 27.991C57.1338 26.9326 56.781 24.9921 57.8394 23.5809Z" stroke="#414042" stroke-width="1.87859" stroke-linecap="round" stroke-linejoin="round"/>
<path fill-rule="evenodd" clip-rule="evenodd" d="M69.6585 27.2854C68.6 25.8741 64.8956 18.2888 66.3068 17.2303C67.718 16.1719 73.7158 22.1697 74.7742 23.5809C75.8326 24.9921 75.4798 26.9326 74.0686 27.991C72.6573 29.0494 70.7169 28.6966 69.6585 27.2854Z" stroke="#414042" stroke-width="1.87859" stroke-linecap="round" stroke-linejoin="round"/>
<path fill-rule="evenodd" clip-rule="evenodd" d="M76.891 17.2302C75.3034 17.7594 66.836 18.9942 66.3068 17.4066C65.7776 15.819 73.3629 11.7617 74.9506 11.2325C76.5382 10.7033 78.3023 11.5853 78.8315 13.1729C79.5371 14.9369 78.4787 16.701 76.891 17.2302Z" stroke="#414042" stroke-width="1.87859" stroke-linecap="round" stroke-linejoin="round"/>
<path d="M13.5621 65.3886C15.3158 65.3886 16.7374 63.9669 16.7374 62.2133C16.7374 60.4596 15.3158 59.038 13.5621 59.038C11.8085 59.038 10.3868 60.4596 10.3868 62.2133C10.3868 63.9669 11.8085 65.3886 13.5621 65.3886Z" fill="#414042"/>
<path fill-rule="evenodd" clip-rule="evenodd" d="M16.7374 52.1582C16.7374 53.9223 15.3262 62.2133 13.5621 62.2133C11.7981 62.2133 10.3868 53.9223 10.3868 52.1582C10.3868 50.3942 11.7981 48.983 13.5621 48.983C15.3262 48.983 16.7374 50.3942 16.7374 52.1582Z" stroke="#414042" stroke-width="1.87859" stroke-linecap="round" stroke-linejoin="round"/>
<path fill-rule="evenodd" clip-rule="evenodd" d="M4.91828 56.2156C6.50592 56.7448 14.0913 60.6257 13.5621 62.3897C13.0329 63.9773 4.56548 62.7425 2.97784 62.2133C1.39021 61.6841 0.508187 59.9201 1.0374 58.3324C1.56661 56.5684 3.33065 55.6864 4.91828 56.2156Z" stroke="#414042" stroke-width="1.87859" stroke-linecap="round" stroke-linejoin="round"/>
<path fill-rule="evenodd" clip-rule="evenodd" d="M5.09466 68.5639C6.15309 67.1526 12.1508 61.1549 13.562 62.2133C14.9733 63.2717 11.0924 70.8571 10.2104 72.2683C9.32836 73.6796 7.21151 74.0324 5.80028 72.974C4.38905 71.9155 4.03624 69.9751 5.09466 68.5639Z" stroke="#414042" stroke-width="1.87859" stroke-linecap="round" stroke-linejoin="round"/>
<path fill-rule="evenodd" clip-rule="evenodd" d="M16.9137 72.2683C15.8553 70.8571 12.1508 63.2717 13.562 62.2133C14.9733 61.1549 20.971 67.1526 22.0294 68.5639C23.0879 69.9751 22.735 71.9155 21.3238 72.974C19.9126 74.0324 17.9721 73.6796 16.9137 72.2683Z" stroke="#414042" stroke-width="1.87859" stroke-linecap="round" stroke-linejoin="round"/>
<path fill-rule="evenodd" clip-rule="evenodd" d="M24.1463 62.2132C22.5586 62.7424 14.0913 63.9773 13.562 62.3896C13.0328 60.802 20.6182 56.7447 22.2058 56.2155C23.7935 55.6863 25.5575 56.5683 26.0867 58.1559C26.6159 59.92 25.7339 61.684 24.1463 62.2132Z" stroke="#414042" stroke-width="1.87859" stroke-linecap="round" stroke-linejoin="round"/>
<path d="M66.3069 65.3886C68.0605 65.3886 69.4821 63.9669 69.4821 62.2133C69.4821 60.4596 68.0605 59.038 66.3069 59.038C64.5532 59.038 63.1316 60.4596 63.1316 62.2133C63.1316 63.9669 64.5532 65.3886 66.3069 65.3886Z" fill="#414042"/>
<path fill-rule="evenodd" clip-rule="evenodd" d="M69.4821 52.1582C69.4821 53.9223 68.0709 62.2133 66.3069 62.2133C64.5428 62.2133 63.1316 53.9223 63.1316 52.1582C63.1316 50.3942 64.5428 48.983 66.3069 48.983C68.0709 48.983 69.4821 50.3942 69.4821 52.1582Z" stroke="#414042" stroke-width="1.87859" stroke-linecap="round" stroke-linejoin="round"/>
<path fill-rule="evenodd" clip-rule="evenodd" d="M57.663 56.2156C59.2507 56.7448 66.836 60.6257 66.3068 62.3897C65.7776 63.9773 57.3102 62.7425 55.7226 62.2133C54.135 61.6841 53.2529 59.9201 53.7821 58.3324C54.3114 56.5684 56.0754 55.6864 57.663 56.2156Z" stroke="#414042" stroke-width="1.87859" stroke-linecap="round" stroke-linejoin="round"/>
<path fill-rule="evenodd" clip-rule="evenodd" d="M57.8394 68.5639C58.8978 67.1526 64.8956 61.1549 66.3068 62.2133C67.718 63.2717 63.8371 70.8571 62.9551 72.2683C61.8967 73.6796 59.9563 74.0324 58.545 72.974C57.1338 71.9155 56.781 69.9751 57.8394 68.5639Z" stroke="#414042" stroke-width="1.87859" stroke-linecap="round" stroke-linejoin="round"/>
<path fill-rule="evenodd" clip-rule="evenodd" d="M69.6585 72.2683C68.6 70.8571 64.8956 63.2717 66.3068 62.2133C67.718 61.1549 73.7158 67.1526 74.7742 68.5639C75.8326 69.9751 75.4798 71.9155 74.0686 72.974C72.6573 74.0324 70.7169 73.6796 69.6585 72.2683Z" stroke="#414042" stroke-width="1.87859" stroke-linecap="round" stroke-linejoin="round"/>
<path fill-rule="evenodd" clip-rule="evenodd" d="M76.891 62.2132C75.3034 62.7424 66.836 63.9773 66.3068 62.3896C65.7776 60.802 73.3629 56.7447 74.9506 56.2155C76.5382 55.6863 78.3023 56.5683 78.8315 58.1559C79.5371 59.92 78.4787 61.684 76.891 62.2132Z" stroke="#414042" stroke-width="1.87859" stroke-linecap="round" stroke-linejoin="round"/>
</g>
</svg>
