<svg width="14" height="14" viewBox="0 0 14 14" fill="none" xmlns="http://www.w3.org/2000/svg">
<path d="M7.79956 1.18965L6.99963 2.08363L6.20044 1.18965C5.88547 0.817058 5.49237 0.517505 5.0487 0.311996C4.60503 0.106488 4.12153 0 3.63211 0C3.14269 0 2.65919 0.106488 2.21552 0.311996C1.77185 0.517505 1.37875 0.817058 1.06378 1.18965C0.377135 1.99113 0 3.00969 0 4.06268C0 5.11568 0.377135 6.13424 1.06378 6.93571L6.99963 14L12.9362 6.93571C13.6229 6.13424 14 5.11568 14 4.06268C14 3.00969 13.6229 1.99113 12.9362 1.18965C12.6213 0.817058 12.2282 0.517505 11.7845 0.311996C11.3408 0.106488 10.8573 0 10.3679 0C9.87847 0 9.39497 0.106488 8.9513 0.311996C8.50763 0.517505 8.11453 0.817058 7.79956 1.18965Z" fill="#FF563F"/>
</svg>
