<svg width="118" height="32" viewBox="0 0 118 32" fill="none" xmlns="http://www.w3.org/2000/svg">
<rect width="118" height="32" fill="white"/>
<path fill-rule="evenodd" clip-rule="evenodd" d="M19.2433 20.2903C19.1838 20.3419 19.1098 20.3738 19.0315 20.3818C18.9532 20.3897 18.8743 20.3732 18.8057 20.3346C18.1911 19.8232 18.0797 19.5872 17.7453 19.1005C16.7276 20.1363 16.0081 20.446 14.692 20.446C13.1334 20.446 11.9207 19.484 11.9207 17.5599C11.9207 16.057 12.7401 15.036 13.8873 14.5345C14.892 14.0936 16.2949 14.0133 17.3684 13.892V13.6527C17.3684 13.2119 17.4028 12.6907 17.1439 12.3088C16.9177 11.968 16.4883 11.8286 16.1048 11.8286C15.3984 11.8286 14.7691 12.1908 14.615 12.9398C14.6055 13.0248 14.5683 13.1043 14.509 13.1659C14.4497 13.2275 14.3718 13.2679 14.2872 13.2807L12.5074 13.0857C12.4634 13.0794 12.4212 13.0642 12.3833 13.0411C12.3454 13.018 12.3126 12.9875 12.2868 12.9513C12.2611 12.9151 12.2429 12.8741 12.2335 12.8307C12.2241 12.7873 12.2236 12.7425 12.232 12.6989C12.6434 10.5224 14.6101 9.86523 16.3719 9.86523C17.2733 9.86523 18.4501 10.1045 19.1581 10.7863C20.0578 11.6287 19.9775 12.753 19.9775 13.974V16.8568C19.9775 17.7254 20.3381 18.1057 20.6773 18.5727C20.7953 18.7366 20.8216 18.9415 20.6773 19.0644C20.2987 19.3807 19.6268 19.9642 19.258 20.2936L19.2433 20.2903ZM17.3766 15.7768C17.3766 16.4979 17.393 17.0994 17.0308 17.7435C16.7358 18.2646 16.2687 18.5859 15.7475 18.5859C15.0379 18.5859 14.6232 18.045 14.6232 17.242C14.6232 15.6653 16.0376 15.3785 17.3766 15.3785V15.78V15.7768Z" fill="#232F3E"/>
<path fill-rule="evenodd" clip-rule="evenodd" d="M24.3141 20.2184H22.4638C22.3807 20.2141 22.302 20.1802 22.2418 20.1227C22.1817 20.0653 22.1441 19.9882 22.136 19.9054V10.3998C22.139 10.3082 22.1777 10.2214 22.2439 10.158C22.31 10.0946 22.3984 10.0596 22.49 10.0605H24.2158C24.3012 10.0652 24.3818 10.1013 24.4423 10.1617C24.5028 10.2222 24.5388 10.3029 24.5435 10.3883V11.6289H24.578C25.027 10.4276 25.8743 9.86875 27.015 9.86875C28.1557 9.86875 28.8981 10.4276 29.4176 11.6289C29.588 11.1749 29.8761 10.7743 30.2523 10.4683C30.6286 10.1623 31.0795 9.96192 31.5587 9.88768C32.038 9.81345 32.5284 9.86805 32.9795 10.0459C33.4307 10.2237 33.8265 10.5184 34.1262 10.8996C34.7146 11.6994 34.5933 12.8663 34.5933 13.8792V19.8759C34.5925 19.9219 34.5825 19.9673 34.5641 20.0094C34.5457 20.0515 34.5191 20.0896 34.4859 20.1214C34.4527 20.1533 34.4135 20.1782 34.3706 20.1949C34.3278 20.2115 34.282 20.2195 34.236 20.2184H32.3857C32.298 20.2139 32.2153 20.1761 32.1544 20.1128C32.0936 20.0495 32.0591 19.9654 32.0579 19.8776V14.8396C32.0579 14.4397 32.0923 13.4399 32.0055 13.0597C31.8678 12.4205 31.4532 12.2402 30.9172 12.2402C30.6769 12.2476 30.444 12.3253 30.2474 12.4636C30.0508 12.602 29.899 12.795 29.811 13.0187C29.6209 13.5006 29.6373 14.2987 29.6373 14.8396V19.8759C29.6364 19.9218 29.6265 19.967 29.6082 20.009C29.5899 20.051 29.5634 20.089 29.5304 20.1209C29.4974 20.1527 29.4584 20.1777 29.4157 20.1944C29.373 20.2111 29.3275 20.2193 29.2816 20.2184H27.4264C27.3388 20.2135 27.2563 20.1756 27.1955 20.1124C27.1347 20.0491 27.1001 19.9653 27.0986 19.8776V14.8396C27.0986 13.7792 27.2625 12.2173 25.9514 12.2173C24.6402 12.2173 24.673 13.7366 24.673 14.8396V19.8759C24.6722 19.9219 24.6622 19.9673 24.6438 20.0094C24.6254 20.0515 24.5988 20.0896 24.5656 20.1214C24.5324 20.1533 24.4932 20.1782 24.4503 20.1949C24.4075 20.2115 24.3617 20.2195 24.3157 20.2184" fill="#232F3E"/>
<path fill-rule="evenodd" clip-rule="evenodd" d="M44.943 18.5669C44.6037 18.0998 44.2432 17.7196 44.2432 16.8526V13.9681C44.2432 12.7455 44.33 11.6228 43.4237 10.7804C42.7141 10.0987 41.5373 9.85938 40.6376 9.85938C38.8758 9.85938 36.9091 10.5149 36.4961 12.693C36.4874 12.7369 36.4878 12.782 36.4972 12.8257C36.5066 12.8694 36.5248 12.9107 36.5507 12.947C36.5767 12.9834 36.6098 13.0141 36.648 13.0372C36.6862 13.0603 36.7288 13.0754 36.773 13.0815L38.5676 13.2749C38.6521 13.2618 38.7299 13.2213 38.7891 13.1598C38.8483 13.0982 38.8857 13.0188 38.8954 12.934C39.0511 12.185 39.6772 11.8228 40.3836 11.8228C40.7654 11.8228 41.203 11.9637 41.4226 12.3046C41.6832 12.6848 41.6488 13.206 41.6488 13.6469V13.8813C40.5753 14.0009 39.1708 14.0812 38.1678 14.5221C37.0074 15.0236 36.1929 16.0446 36.1929 17.5491C36.1929 19.4716 37.4057 20.4336 38.9643 20.4336C40.2754 20.4336 40.9998 20.1238 42.0159 19.0881C42.3535 19.5797 42.4633 19.8108 43.0779 20.3222C43.1465 20.3605 43.2252 20.377 43.3034 20.3694C43.3816 20.3618 43.4556 20.3304 43.5155 20.2795C43.8843 19.9518 44.5562 19.3667 44.9348 19.0504C45.0938 18.9373 45.0676 18.7373 44.943 18.5669ZM41.3046 17.736C41.0113 18.2555 40.5425 18.5767 40.023 18.5767C39.3133 18.5767 38.8987 18.0359 38.8987 17.2345C38.8987 15.6562 40.3131 15.371 41.6521 15.371V15.7709C41.6521 16.4937 41.6652 17.0935 41.3046 17.736Z" fill="#232F3E"/>
<path fill-rule="evenodd" clip-rule="evenodd" d="M46.5095 11.7251V10.3665C46.5074 10.3207 46.5149 10.2749 46.5316 10.2321C46.5482 10.1894 46.5737 10.1506 46.6063 10.1183C46.6389 10.0861 46.6779 10.061 46.7208 10.0447C46.7637 10.0285 46.8095 10.0214 46.8553 10.024H52.9406C52.9864 10.0224 53.032 10.0301 53.0747 10.0467C53.1174 10.0633 53.1564 10.0883 53.1891 10.1203C53.2219 10.1523 53.2479 10.1906 53.2654 10.2329C53.283 10.2752 53.2918 10.3207 53.2913 10.3665V11.5317C53.2913 11.7268 53.1274 11.9824 52.8341 12.3856L49.6808 16.8861C50.851 16.8582 52.0884 17.0336 53.152 17.6318C53.2485 17.6832 53.3297 17.7593 53.3872 17.8523C53.4448 17.9452 53.4768 18.0518 53.4798 18.1611V19.6165C53.4798 19.8164 53.2618 20.0475 53.0307 19.9279C52.0359 19.4165 50.9332 19.1508 49.8146 19.1528C48.6961 19.1548 47.5943 19.4245 46.6013 19.9393C46.3899 20.0524 46.1686 19.8246 46.1686 19.6247V18.2398C46.1493 17.9133 46.2281 17.5886 46.3948 17.3073L50.0479 12.0628H46.8619C46.816 12.0645 46.7702 12.057 46.7273 12.0405C46.6844 12.024 46.6452 11.999 46.6123 11.967C46.5793 11.935 46.5532 11.8966 46.5356 11.8542C46.5179 11.8117 46.5091 11.7662 46.5095 11.7202" fill="#232F3E"/>
<path fill-rule="evenodd" clip-rule="evenodd" d="M58.5458 11.794C57.1806 11.794 57.0937 13.6525 57.0937 14.8128C57.0937 15.9732 57.0773 18.4512 58.5277 18.4512C59.9782 18.4512 60.0323 16.4518 60.0323 15.2324C60.0323 14.4326 59.9978 13.4722 59.7553 12.7134C59.5471 12.0578 59.1325 11.794 58.5458 11.794ZM58.5277 9.85352C61.2762 9.85352 62.7627 12.2135 62.7627 15.2127C62.7627 18.112 61.1238 20.4114 58.5277 20.4114C55.8317 20.4114 54.3633 18.0513 54.3633 15.1128C54.3633 12.1742 55.8498 9.85352 58.5277 9.85352Z" fill="#232F3E"/>
<path fill-rule="evenodd" clip-rule="evenodd" d="M66.3456 20.1987H64.5001C64.4124 20.1941 64.3297 20.1564 64.2689 20.0931C64.208 20.0297 64.1735 19.9456 64.1724 19.8578V10.3522C64.1818 10.2651 64.2236 10.1848 64.2895 10.1271C64.3553 10.0694 64.4405 10.0386 64.528 10.0408H66.2456C66.3217 10.0432 66.3949 10.0705 66.4541 10.1184C66.5133 10.1663 66.5552 10.2323 66.5734 10.3063V11.76H66.6094C67.1273 10.4603 67.8533 9.84082 69.1317 9.84082C69.961 9.84082 70.7706 10.1407 71.2934 10.9602C71.7769 11.7206 71.7769 13.0006 71.7769 13.9201V19.9004C71.7638 19.9848 71.7205 20.0615 71.6551 20.1164C71.5897 20.1713 71.5066 20.2005 71.4212 20.1987H69.5595C69.4785 20.1952 69.4014 20.1635 69.3415 20.109C69.2816 20.0545 69.2427 19.9807 69.2317 19.9004V14.7395C69.2317 13.7004 69.353 12.1795 68.073 12.1795C67.8402 12.1903 67.6155 12.2677 67.4255 12.4025C67.2355 12.5373 67.0882 12.7239 67.0011 12.94C66.7422 13.5202 66.7078 14.1003 66.7078 14.7428V19.8578C66.7043 19.9506 66.6646 20.0382 66.5972 20.102C66.5298 20.1658 66.44 20.2005 66.3472 20.1987" fill="#232F3E"/>
<path fill-rule="evenodd" clip-rule="evenodd" d="M81.4103 11.4847C80.4693 11.4921 79.5563 11.8057 78.8093 12.3779V17.7863C79.6375 18.4091 80.4914 18.7199 81.3709 18.7188C83.1563 18.7188 84.0489 17.517 84.0489 15.1132C84.0489 12.7095 83.1694 11.4994 81.4103 11.4831V11.4847ZM78.6733 11.2323C79.1384 10.8221 79.6699 10.4941 80.245 10.2621C80.7883 10.0455 81.3679 9.93427 81.9528 9.93428C82.5341 9.92346 83.1108 10.0398 83.6425 10.2752C84.1435 10.5049 84.5823 10.851 84.9225 11.2847C85.2928 11.7652 85.5666 12.3129 85.7288 12.8974C85.9253 13.5902 86.0203 14.3079 86.0107 15.028C86.0196 15.7634 85.918 16.496 85.7091 17.2012C85.5343 17.7996 85.2479 18.3596 84.8651 18.8516C84.5096 19.2989 84.0581 19.6607 83.5441 19.9103C83.004 20.161 82.4137 20.2849 81.8184 20.2725C80.7057 20.2909 79.6287 19.8801 78.811 19.1253V23.6749C78.8187 23.7277 78.8139 23.7815 78.7971 23.8322C78.7804 23.8828 78.752 23.9288 78.7142 23.9666C78.6765 24.0043 78.6305 24.0327 78.5799 24.0495C78.5292 24.0663 78.4753 24.071 78.4225 24.0633H77.2753C77.2225 24.071 77.1687 24.0663 77.118 24.0495C77.0674 24.0327 77.0214 24.0043 76.9836 23.9666C76.9459 23.9288 76.9175 23.8828 76.9007 23.8322C76.8839 23.7815 76.8792 23.7277 76.8869 23.6749V10.6112C76.8795 10.5584 76.8845 10.5047 76.9014 10.4542C76.9184 10.4037 76.9468 10.3579 76.9844 10.3202C77.022 10.2826 77.0679 10.2542 77.1184 10.2373C77.1689 10.2204 77.2226 10.2154 77.2753 10.2227H78.1292C78.1843 10.2176 78.2399 10.2236 78.2927 10.2406C78.3454 10.2575 78.3941 10.285 78.4359 10.3213C78.4778 10.3576 78.5118 10.402 78.536 10.4518C78.5601 10.5016 78.574 10.5558 78.5766 10.6112L78.6733 11.2323Z" fill="#232F3E"/>
<path fill-rule="evenodd" clip-rule="evenodd" d="M90.8521 18.8662C91.3095 18.8604 91.7625 18.7756 92.1911 18.6154C92.6721 18.4385 93.1235 18.1899 93.5301 17.8779V15.8965C93.1937 15.8174 92.8535 15.7561 92.5107 15.7129C92.1667 15.6678 91.8202 15.6448 91.4732 15.6441C90.0092 15.6441 89.2777 16.2073 89.2787 17.3338C89.2787 17.8255 89.4148 18.2041 89.6868 18.4696C89.9589 18.7351 90.3473 18.8673 90.8521 18.8662ZM88.5806 11.914L88.4347 11.9631C88.382 11.9818 88.3267 11.9918 88.2708 11.9926C88.1069 11.9926 88.0184 11.8763 88.0184 11.6419V11.1224C88.006 10.9911 88.0334 10.8592 88.0971 10.7438C88.1809 10.6498 88.2876 10.5793 88.4068 10.5389C88.8997 10.3386 89.4138 10.1951 89.9392 10.1112C90.5411 10.0022 91.1516 9.94732 91.7633 9.94727C92.9925 9.94727 93.8983 10.1991 94.4806 10.7028C95.063 11.2065 95.3547 11.9893 95.3558 13.0514V19.6824C95.3632 19.7351 95.3582 19.7888 95.3413 19.8393C95.3244 19.8898 95.296 19.9356 95.2583 19.9733C95.2207 20.0109 95.1748 20.0393 95.1243 20.0563C95.0738 20.0732 95.0201 20.0781 94.9674 20.0708H94.1315C94.0791 20.076 94.0261 20.0704 93.9759 20.0544C93.9256 20.0385 93.8791 20.0125 93.8393 19.978C93.7994 19.9435 93.767 19.9012 93.744 19.8538C93.721 19.8063 93.7078 19.7547 93.7054 19.702L93.6071 19.0612C93.1499 19.4573 92.6283 19.7722 92.0649 19.9921C91.5306 20.2063 90.9606 20.3175 90.385 20.3199C89.4541 20.3199 88.7166 20.0577 88.1725 19.5332C87.6284 19.0088 87.3552 18.3068 87.353 17.4272C87.353 16.4832 87.6896 15.7293 88.3626 15.1655C89.0356 14.6018 89.9414 14.3204 91.0799 14.3215C91.905 14.3342 92.7258 14.4442 93.5252 14.6493V13.3742C93.5252 12.675 93.37 12.1833 93.0597 11.8992C92.7494 11.6151 92.2058 11.4725 91.429 11.4714C90.4631 11.4806 89.5037 11.6296 88.5806 11.914Z" fill="#232F3E"/>
<path fill-rule="evenodd" clip-rule="evenodd" d="M101.672 21.79C101.321 22.6827 100.917 23.3235 100.458 23.7125C99.9988 24.1014 99.3979 24.2954 98.6549 24.2943C98.2817 24.2992 97.9096 24.2535 97.5487 24.1582C97.4274 24.1323 97.318 24.0673 97.2373 23.973C97.1637 23.8545 97.1298 23.7156 97.1406 23.5764V23.0716C97.1406 22.8258 97.2373 22.7029 97.4323 22.7029C97.5304 22.7074 97.628 22.72 97.724 22.7406C97.8967 22.7704 98.0717 22.7836 98.2469 22.7799C98.6589 22.8059 99.0664 22.6819 99.3941 22.4308C99.6662 22.1981 99.912 21.7709 100.132 21.1492L100.5 20.1659L96.7604 10.9208C96.6901 10.7736 96.6446 10.6158 96.626 10.4537C96.626 10.2996 96.7161 10.221 96.8964 10.221H98.0617C98.2109 10.2067 98.3608 10.2406 98.4894 10.3177C98.599 10.4401 98.6782 10.5866 98.7205 10.7454L101.439 18.2762L104.062 10.7454C104.104 10.5866 104.183 10.4401 104.293 10.3177C104.421 10.2406 104.571 10.2067 104.721 10.221H105.807C105.989 10.221 106.079 10.2996 106.079 10.4537C106.06 10.6158 106.014 10.7736 105.943 10.9208L101.672 21.79Z" fill="#232F3E"/>
<path fill-rule="evenodd" clip-rule="evenodd" d="M49.0204 23.9445C45.5442 26.5094 40.498 27.8779 36.1648 27.8779C30.3676 27.9074 24.7683 25.7712 20.464 21.8877C20.1363 21.5943 20.428 21.1928 20.8197 21.4206C25.2906 24.0215 30.817 25.5883 36.5302 25.5883C40.6482 25.5658 44.7212 24.7304 48.5156 23.13C49.1023 22.8808 49.5956 23.5167 49.0204 23.9494M50.4659 22.299C50.9116 22.8677 49.9742 25.2146 49.553 26.2619C49.4252 26.5782 49.6989 26.7061 49.9857 26.4668C51.8491 24.9065 52.3309 21.6386 51.9524 21.1665C51.5738 20.6945 48.314 20.2947 46.3243 21.6926C46.0179 21.9073 46.0703 22.204 46.4112 22.163C47.5306 22.0286 50.025 21.7287 50.4691 22.299" fill="#FF9900"/>
</svg>
