<svg width="45" height="32" viewBox="0 0 45 32" fill="none" xmlns="http://www.w3.org/2000/svg">
<g id="Visa_mc_symbol">
<path id="Vector" d="M45 0H0V32H45V0Z" fill="white"/>
<path id="Visa-debit" fill-rule="evenodd" clip-rule="evenodd" d="M9.95605 19.88H13.1093L17.8385 8.27048H14.7729L11.6211 16.1298L10.3942 9.43127C10.3066 8.80754 9.78079 8.27048 9.07971 8.27048H4V8.628C5.05161 8.80754 6.01559 9.16351 6.89039 9.61081C7.24093 9.7888 7.47923 10.1664 7.59147 10.5936L9.95605 19.88ZM16.6134 19.88H19.5914L22.0436 8.27048H19.0656L16.6134 19.88ZM27.126 10.5011C26.5125 10.5011 25.9867 10.8586 25.8991 11.4839C25.8991 12.0181 26.5547 12.3675 27.3426 12.7875C28.5294 13.4199 30.0164 14.2124 30.0164 16.0373C30.0164 18.4487 28.0023 20.0552 24.7614 19.967C23.7098 19.967 22.5721 19.7875 21.5204 19.3417L22.0463 16.8406C23.0087 17.2879 24.0603 17.5557 25.1119 17.5557C25.9867 17.5557 26.8631 17.1981 26.8631 16.3949C26.9507 15.8594 26.5125 15.5018 25.3748 14.9663C24.3232 14.4293 22.8334 13.5378 22.8334 11.8399C22.8334 9.60809 24.9366 8 27.827 8C28.7018 8 29.6658 8.17954 30.5422 8.53706L30.0164 11.0366C29.14 10.5909 28.0899 10.4114 27.126 10.5011ZM38.0712 8.27051L40.4357 19.88H37.7206L37.3701 18.1837H33.6033L32.9914 19.88H29.9258L34.3044 9.16355C34.4797 8.62803 35.0055 8.27051 35.5313 8.27051H38.0712ZM36.8448 15.77L35.97 11.3945L34.3926 15.77H36.8448ZM34.5641 22.2323H35.0805V24.0351H35.0922C35.2764 23.7151 35.6081 23.5133 36.0708 23.5133C36.7886 23.5133 37.2868 24.1061 37.2868 24.9718C37.2868 25.9972 36.6344 26.5074 35.9937 26.5074C35.5787 26.5074 35.2459 26.3471 35.0268 25.9733H35.0151L34.9852 26.4419H34.5408C34.5524 26.2462 34.5641 25.9556 34.5641 25.7005V22.2323ZM35.0805 25.2918C35.0805 25.3567 35.0861 25.4221 35.1039 25.4809C35.1992 25.8425 35.5072 26.092 35.8871 26.092C36.4391 26.092 36.7587 25.6473 36.7587 24.989C36.7587 24.4139 36.4624 23.9215 35.8993 23.9215C35.5488 23.9215 35.217 24.171 35.11 24.562C35.0922 24.6274 35.0805 24.6984 35.0805 24.7816V25.2918ZM28.4367 22.4229C28.0273 22.4229 27.6539 22.4584 27.3388 22.5116V26.4368C27.5996 26.4662 27.902 26.484 28.2763 26.484C29.0535 26.484 29.6704 26.2821 30.0499 25.9089C30.4172 25.5412 30.6252 25.0077 30.6252 24.3555C30.6252 23.7089 30.4172 23.2464 30.0555 22.9209C29.7059 22.6009 29.1773 22.4229 28.4367 22.4229ZM28.3768 26.0691C28.1754 26.0691 27.9857 26.063 27.8553 26.0453V22.8849C27.9917 22.8554 28.1937 22.8316 28.46 22.8316C29.5517 22.8316 30.0854 23.4305 30.0793 24.3733C30.0793 25.4525 29.4863 26.0691 28.3768 26.0691ZM32.7152 26.0984C32.1871 26.0984 31.7422 25.8084 31.7305 25.1024V25.1019H33.747C33.7587 25.0426 33.7648 24.9655 33.7648 24.8585C33.7648 24.3316 33.5213 23.5131 32.5782 23.5131C31.7422 23.5131 31.2323 24.1891 31.2323 25.0543C31.2323 25.9204 31.7599 26.5077 32.6437 26.5077C33.1002 26.5077 33.4203 26.4068 33.6045 26.3236L33.5096 25.9504C33.3199 26.033 33.0886 26.0984 32.7152 26.0984ZM32.5366 23.8874C33.1241 23.8874 33.2666 24.4026 33.2605 24.7292H33.26H31.7356C31.7772 24.3676 32.0029 23.8874 32.5366 23.8874ZM38.3393 23.0868C38.5463 23.0868 38.6711 22.9448 38.6711 22.7668C38.6711 22.5832 38.5412 22.4407 38.3509 22.4407C38.1556 22.4407 38.0253 22.5893 38.0253 22.7668C38.0253 22.9443 38.149 23.0868 38.3393 23.0868ZM38.0897 23.5731V26.443H38.6117V23.5731H38.0897ZM40.2529 22.8908V23.579H41.0001V23.9761H40.2529V25.5233C40.2529 25.8788 40.3538 26.0807 40.644 26.0807C40.7866 26.0807 40.8698 26.069 40.9464 26.0452L40.9702 26.4423C40.8692 26.4783 40.7089 26.5138 40.5075 26.5138C40.264 26.5138 40.0687 26.4306 39.9439 26.2942C39.8014 26.1339 39.742 25.8788 39.742 25.5406V23.9756H39.2976V23.5785H39.742V23.0445L40.2524 22.8903L40.2529 22.8908Z" fill="#172B85"/>
</g>
</svg>
