<svg width="18" height="18" viewBox="0 0 18 18" fill="none" xmlns="http://www.w3.org/2000/svg">
<path fill-rule="evenodd" clip-rule="evenodd" d="M9.75198 5.89632C9.3502 5.92707 8.88591 5.95731 8.42212 6.01831C7.71132 6.11208 7.00051 6.23609 6.41423 6.51436C5.27039 6.97815 4.49707 7.96773 4.49707 9.42009C4.49707 11.246 5.67116 12.1726 7.15629 12.1726C7.65032 12.1726 8.0521 12.1101 8.42212 12.0183C9.01093 11.8323 9.50396 11.492 10.0913 10.873C10.4315 11.3367 10.5253 11.5545 11.1116 12.0486C11.2663 12.1096 11.4211 12.1096 11.5441 12.0178C11.9157 11.7083 12.5655 11.1512 12.9047 10.8422C13.0595 10.7187 13.0292 10.5327 12.935 10.3789C12.5957 9.94538 12.2549 9.57385 12.2549 8.73953V5.95681C12.2549 4.78171 12.3487 3.69938 11.4831 2.89582C10.7723 2.24803 9.65922 2 8.79366 2H8.42212C6.84676 2.09125 5.17864 2.7718 4.80609 4.72072C4.74459 4.96874 4.93061 5.061 5.05412 5.09124L6.78526 5.30801C6.97027 5.27676 7.06353 5.12199 7.09428 4.96874C7.24803 4.28818 7.80508 3.94791 8.42263 3.8854H8.54714C8.91868 3.8854 9.32046 4.04016 9.53622 4.35019C9.78324 4.72072 9.75299 5.21626 9.75299 5.6493V5.89632H9.75198ZM9.4117 9.57485C9.19493 10.0074 8.8239 10.2857 8.42162 10.3799C8.36062 10.3799 8.26786 10.4107 8.1746 10.4107C7.49505 10.4107 7.09327 9.88489 7.09327 9.11208C7.09327 8.12199 7.68057 7.65871 8.42162 7.44143C8.8234 7.34918 9.28769 7.31792 9.75148 7.31792V7.68946C9.75148 8.40026 9.78223 8.95681 9.4112 9.57536L9.4117 9.57485Z" fill="#2C3843"/>
<path fill-rule="evenodd" clip-rule="evenodd" d="M13.9777 13.3407C13.9076 13.3396 13.836 13.3563 13.7695 13.3875C13.6944 13.4173 13.6178 13.4516 13.5457 13.4823L13.4393 13.5267L13.3012 13.5816V13.5831C11.7984 14.1926 10.2195 14.5505 8.75858 14.5818C8.70514 14.5833 8.6507 14.5833 8.59878 14.5833C6.30101 14.5848 4.42671 13.5186 2.53627 12.4685C2.47023 12.4337 2.40218 12.4156 2.33614 12.4156C2.25144 12.4156 2.16423 12.4479 2.10071 12.5068C2.03719 12.5683 1.99939 12.6546 1.99989 12.7428C1.99888 12.8572 2.06089 12.9626 2.14709 13.0311C3.92158 14.5727 5.86697 16.0044 8.48333 16.0064C8.53425 16.0064 8.58617 16.0049 8.6381 16.0039C10.3022 15.9666 12.1841 15.404 13.645 14.4865L13.6541 14.4805C13.8451 14.366 14.0362 14.236 14.2167 14.0918C14.3286 14.0086 14.4062 13.8785 14.4062 13.7434C14.4012 13.504 14.198 13.3417 13.9782 13.3417L13.9777 13.3407ZM16.0042 12.4887V12.4877C15.9977 12.342 15.9669 12.2306 15.9064 12.1383L15.8999 12.1293L15.8923 12.1202C15.8308 12.0526 15.7713 12.0269 15.7073 11.9992C15.5153 11.9251 15.2365 11.8853 14.9002 11.8848C14.6588 11.8848 14.3931 11.908 14.1254 11.9664L14.1244 11.9483L13.8552 12.038L13.8502 12.0405L13.6979 12.0899V12.0965C13.5195 12.1706 13.3571 12.2629 13.2064 12.3722C13.1126 12.4423 13.035 12.5356 13.031 12.6777C13.0284 12.7554 13.0683 12.8441 13.1333 12.897C13.1983 12.95 13.274 12.9681 13.341 12.9681C13.3566 12.9681 13.3712 12.9671 13.3849 12.9646L13.398 12.9636L13.408 12.9621C13.5396 12.9338 13.7317 12.9152 13.9565 12.8839C14.1491 12.8622 14.3533 12.8466 14.5307 12.8466C14.6557 12.8456 14.7687 12.8547 14.8463 12.8713C14.8851 12.8794 14.9138 12.8895 14.9295 12.8975C14.9355 12.899 14.9396 12.9016 14.9421 12.9036C14.9456 12.9142 14.9501 12.9424 14.9496 12.9812C14.9511 13.1294 14.8886 13.4047 14.8024 13.6734C14.7182 13.9421 14.6164 14.2113 14.5489 14.3902C14.5322 14.4316 14.5216 14.4769 14.5216 14.5263C14.5201 14.5979 14.5499 14.6851 14.6124 14.7431C14.6734 14.8006 14.7525 14.8238 14.8181 14.8238H14.8216C14.9204 14.8228 15.0046 14.7834 15.0767 14.7265C15.7603 14.112 15.9982 13.1299 16.0083 12.5769L16.0068 12.4887H16.0042Z" fill="#F8992C"/>
</svg>
