<svg width="30" height="30" viewBox="0 0 30 30" fill="none" xmlns="http://www.w3.org/2000/svg">
<circle cx="15" cy="15" r="14.5" stroke="#DDDDDD"/>
<rect x="8" y="8" width="14" height="14" rx="2" fill="#BBBBBB"/>
<path fill-rule="evenodd" clip-rule="evenodd" d="M15.0393 15.2991L14.6793 15.2601L14.6789 15.2597C14.7694 15.0541 14.8569 14.8547 14.9459 14.652L14.9469 14.6497L14.9471 14.6493L15.0988 14.3038C14.9954 14.2958 14.903 14.2885 14.8116 14.2813L14.8115 14.2813L14.8114 14.2813L14.5716 14.2624L14.7233 13.9099L14.8977 13.5047C14.845 13.5047 14.7968 13.5058 14.7518 13.5068C14.6595 13.5087 14.5805 13.5104 14.5024 13.5023C14.3496 13.4862 14.2732 13.5538 14.2189 13.6901C14.1531 13.8559 14.0788 14.0185 14.0045 14.1811L14.0045 14.1811L14.0045 14.1811L14.0045 14.1812C13.9789 14.2371 13.9533 14.2931 13.9281 14.3493C13.7512 14.7414 13.7934 14.8158 14.2124 14.8511C14.2184 14.8517 14.2241 14.8581 14.2315 14.8665C14.2355 14.871 14.24 14.8762 14.2454 14.8813L14.2189 14.9457C14.1455 15.1243 14.0711 15.3052 13.9961 15.4857C13.9454 15.608 13.9864 15.7294 14.0998 15.7451C14.2822 15.7704 14.4687 15.7687 14.6548 15.7669H14.6548H14.6548H14.6548H14.6548C14.7022 15.7665 14.7495 15.766 14.7968 15.766C14.8197 15.766 14.851 15.7274 14.8639 15.6997C14.9059 15.6096 14.945 15.5185 14.9876 15.4192L14.9876 15.4191L14.9876 15.4191L14.9876 15.4191L14.9876 15.4191L14.9876 15.4191L14.9876 15.419C15.0042 15.3805 15.0213 15.3406 15.0393 15.2991ZM18.2658 16.0395H18.2657V16.0391L18.2658 16.0395ZM18.9361 16.541C18.4938 16.6266 18.3635 16.5362 18.2658 16.0395C18.3098 16.0395 18.352 16.0393 18.3929 16.0391H18.3929L18.3931 16.0391C18.4795 16.0387 18.5601 16.0383 18.6405 16.0399C18.7495 16.0423 18.7969 15.9969 18.7957 15.8843C18.7952 15.832 18.7954 15.7849 18.7956 15.7424C18.7972 15.3684 18.7972 15.3558 18.3111 15.3659C18.2042 15.3681 18.0972 15.3675 17.9825 15.3669H17.9825H17.9825H17.9825H17.9825H17.9824H17.9824C17.9264 15.3666 17.8686 15.3663 17.8081 15.3663C17.8081 15.4684 17.8073 15.5689 17.8066 15.6683V15.6684V15.6685V15.6686V15.6687V15.6687V15.6688C17.805 15.904 17.8034 16.133 17.8113 16.3616C17.8169 16.5225 17.7622 16.5711 17.6054 16.5671C17.5566 16.5659 17.5139 16.5653 17.4767 16.5648H17.4767H17.4766H17.4766C17.3371 16.563 17.2733 16.5622 17.245 16.5301C17.2211 16.5031 17.2223 16.4539 17.2245 16.3634L17.2245 16.3633C17.2256 16.3195 17.2269 16.2661 17.2257 16.2008C17.2225 16.028 17.2227 15.8555 17.223 15.6828C17.2231 15.6011 17.2232 15.5193 17.2229 15.4375C17.2229 15.4296 17.221 15.4217 17.2173 15.407L17.2173 15.407C17.215 15.3978 17.212 15.3858 17.2085 15.3695H16.6764V14.7864H17.2101V14.3489C17.1757 14.3408 17.1328 14.3349 17.0895 14.329C16.9925 14.3156 16.8932 14.302 16.8815 14.2628C16.8485 14.15 16.8544 14.0259 16.8605 13.8982C16.8629 13.847 16.8654 13.7951 16.8654 13.7432L16.9885 13.7335L16.9885 13.7335L16.9886 13.7335C17.0604 13.7279 17.1303 13.7224 17.2052 13.7167L17.222 13.634L17.2467 13.5116C17.2894 13.5116 17.3328 13.5103 17.3765 13.5091C17.4884 13.5059 17.6023 13.5027 17.7127 13.52C17.7494 13.5257 17.7792 13.575 17.8126 13.6305C17.8291 13.6577 17.8465 13.6865 17.866 13.7123C18.3981 13.8029 18.6913 14.1526 18.7455 14.7615L18.8 14.7707C18.8303 14.7759 18.8615 14.7813 18.8927 14.786C19.1911 14.8318 19.37 15.0297 19.3764 15.3313C19.3813 15.5589 19.3797 15.7865 19.3776 16.0142C19.3748 16.3166 19.2333 16.4835 18.9361 16.541ZM18.1274 14.7719H17.8169V14.3456C18.1704 14.2761 18.207 14.3263 18.1274 14.7719ZM14.8963 16.3643C14.8727 16.428 14.8477 16.4955 14.8165 16.5639H14.8169C14.9832 16.5639 15.1437 16.5644 15.3003 16.565C15.6458 16.5662 15.9721 16.5673 16.2984 16.5623C16.3821 16.561 16.4494 16.5631 16.5035 16.5648C16.6077 16.568 16.663 16.5697 16.6922 16.5429C16.7253 16.5126 16.7249 16.4459 16.724 16.3036V16.3036V16.3036V16.3036V16.3036V16.3036C16.7236 16.2487 16.7232 16.1826 16.7247 16.103C16.7263 15.9993 16.6853 15.9567 16.5835 15.9595C16.4968 15.9617 16.4099 15.9612 16.323 15.9607H16.323H16.323H16.3229H16.3229H16.3228H16.3228C16.2857 15.9605 16.2486 15.9603 16.2115 15.9603V14.3175C16.2379 14.3175 16.2629 14.3188 16.2868 14.3201C16.3388 14.323 16.3852 14.3255 16.4271 14.3131C16.4713 14.3002 16.532 14.2471 16.5353 14.2081C16.5445 14.099 16.5431 13.989 16.5416 13.8711V13.8711V13.8711V13.8711V13.8711V13.8711V13.8711L16.5416 13.871C16.5411 13.8256 16.5405 13.779 16.5405 13.7308L16.2609 13.7306C15.9433 13.7303 15.6381 13.73 15.3328 13.7332C15.3011 13.7336 15.2431 13.7686 15.2423 13.7891L15.2398 13.8483V13.8483C15.2334 13.9886 15.227 14.131 15.2548 14.2656C15.2597 14.2902 15.3374 14.2996 15.4162 14.309C15.4546 14.3136 15.4932 14.3183 15.5238 14.3247C15.5316 14.3266 15.5389 14.3307 15.5485 14.3362C15.5537 14.3391 15.5595 14.3425 15.5665 14.346V15.9189C15.5108 15.9308 15.4526 15.9379 15.3957 15.9449C15.2692 15.9604 15.1485 15.9751 15.0722 16.0411C14.9893 16.1126 14.9459 16.2298 14.8963 16.3643ZM11.6612 16.0805C11.9124 16.0368 12.038 15.8969 12.038 15.6607C12.038 15.4771 12.0385 15.2936 12.039 15.1101C12.0403 14.6574 12.0415 14.2049 12.0352 13.7525C12.0328 13.5816 12.0911 13.5349 12.254 13.5397C12.2994 13.541 12.3393 13.5417 12.3743 13.5423C12.507 13.5444 12.5698 13.5454 12.5988 13.5772C12.6249 13.6058 12.6236 13.6593 12.6212 13.7609C12.6203 13.8004 12.6192 13.8471 12.6195 13.9025C12.6235 14.6054 12.6227 15.3084 12.6199 16.0117C12.6183 16.3773 12.4386 16.551 12.0802 16.5663C11.9351 16.5723 11.8369 16.5386 11.7915 16.3874C11.7708 16.319 11.7404 16.2537 11.7073 16.1829C11.6921 16.1504 11.6764 16.1166 11.6608 16.0809L11.6612 16.0805ZM11.7002 14.299C11.672 14.4871 11.661 14.6772 11.6499 14.8675C11.6213 15.3592 11.5925 15.8525 11.2687 16.317C11.2348 16.2168 11.191 16.1262 11.1486 16.0386C11.0523 15.8395 10.9634 15.6557 11.0153 15.4085C11.0669 15.1628 11.0769 14.9082 11.0872 14.6481C11.0917 14.5327 11.0963 14.4163 11.1046 14.299H11.7002ZM12.9546 14.2954H12.9545V14.295L12.9546 14.2954ZM12.9546 14.2954H13.5473C13.5555 14.4044 13.5603 14.5136 13.5651 14.6225L13.5651 14.6225L13.5651 14.6225V14.6225C13.5759 14.8691 13.5866 15.1138 13.6374 15.3498C13.6988 15.6352 13.5959 15.8557 13.4816 16.1007L13.4816 16.1007L13.4816 16.1007C13.4499 16.1686 13.4174 16.2383 13.3872 16.3118C13.0635 15.8586 13.0352 15.369 13.0069 14.8784C12.9957 14.6835 12.9844 14.4884 12.9546 14.2954ZM14.8201 15.9752L14.7586 16.1105L14.7586 16.1105C14.6963 16.248 14.6407 16.3707 14.582 16.4923C14.5691 16.5189 14.5342 16.5518 14.5092 16.5522C14.2934 16.5557 14.0773 16.5555 13.836 16.5552H13.836L13.6297 16.5551C13.6594 16.4896 13.6864 16.4296 13.7116 16.3735L13.7116 16.3734L13.7116 16.3734C13.7751 16.2321 13.8273 16.1159 13.8835 16.0013C13.8976 15.9723 13.9422 15.9382 13.9715 15.939C14.1713 15.9444 14.3709 15.9539 14.5917 15.9644L14.8201 15.9752ZM19.0994 13.7239C18.9136 13.7175 18.7986 13.8554 18.7945 14.1188C18.7861 14.2166 18.7784 14.3271 18.9699 14.3199C19.2188 14.3103 19.3692 14.2166 19.3772 14.0308C19.3841 13.8671 19.2594 13.7295 19.0994 13.7239Z" fill="white"/>
</svg>
