<svg width="30" height="30" viewBox="0 0 30 30" fill="none" xmlns="http://www.w3.org/2000/svg">
<path d="M29.5002 15C29.5002 23.0081 23.0084 29.5 15.0002 29.5C6.99212 29.5 0.500244 23.0081 0.500244 15C0.500244 6.99187 6.99212 0.5 15.0002 0.5C23.0084 0.5 29.5002 6.99187 29.5002 15Z" stroke="#EEEEEE"/>
<path d="M21.9313 11.3241C21.4856 11.5169 20.9976 11.6335 20.5148 11.7096C20.7429 11.6741 21.0771 11.2785 21.2098 11.1212C21.4167 10.8778 21.5864 10.5988 21.6819 10.2995C21.6925 10.2741 21.7032 10.2488 21.6819 10.2285C21.6501 10.2183 21.6289 10.2234 21.6077 10.2336C21.0718 10.5075 20.5201 10.7053 19.9312 10.8473C19.8835 10.8575 19.8463 10.8473 19.8145 10.8169C19.7667 10.7662 19.719 10.7154 19.6659 10.6749C19.4166 10.472 19.1513 10.3147 18.8542 10.198C18.4616 10.0459 18.0319 9.97994 17.6075 10.0053C17.1937 10.0307 16.7905 10.1423 16.4244 10.3249C16.0584 10.5075 15.7294 10.7611 15.4695 11.0705C15.1989 11.3901 15.0026 11.7654 14.9018 12.1611C14.801 12.5466 14.8116 12.927 14.87 13.3125C14.8806 13.3785 14.87 13.3835 14.8116 13.3785C12.5039 13.0487 10.594 12.2625 9.04484 10.5734C8.97588 10.5024 8.93874 10.5024 8.88569 10.5785C8.20662 11.5524 8.53554 13.1147 9.38438 13.8806C9.49579 13.9821 9.6125 14.0835 9.73983 14.1799C9.69208 14.19 9.12973 14.1292 8.62573 13.8806C8.55676 13.84 8.52493 13.8654 8.51962 13.9364C8.51432 14.0429 8.51962 14.1393 8.53554 14.2509C8.66817 15.235 9.37907 16.148 10.3605 16.5031C10.4773 16.5487 10.6046 16.5893 10.7319 16.6096C10.5091 16.6552 10.281 16.6907 9.63903 16.64C9.55945 16.6248 9.52762 16.6654 9.55945 16.7364C10.0422 17.9893 11.0768 18.3596 11.8513 18.5726C11.9574 18.5878 12.0582 18.5878 12.1643 18.6132C12.159 18.6233 12.1537 18.6233 12.1484 18.6284C11.8885 19.0038 10.9972 19.2827 10.5834 19.4197C9.82471 19.6733 9.0024 19.7849 8.20662 19.7088C8.07929 19.6885 8.05276 19.6936 8.01563 19.7088C7.97849 19.7291 8.01563 19.7596 8.05276 19.79C8.21723 19.8914 8.38169 19.9827 8.54615 20.069C9.05545 20.3277 9.58067 20.5306 10.1377 20.6777C12.9972 21.4335 16.2122 20.8755 18.3608 18.8414C20.0479 17.2386 20.6368 15.0321 20.6368 12.8205C20.6368 12.7343 20.7429 12.6886 20.8066 12.643C21.2469 12.3285 21.597 11.9531 21.926 11.5321C22.0002 11.4357 22.0002 11.3546 22.0002 11.3191V11.3089C22.0002 11.2734 22.0002 11.2835 21.9419 11.3089L21.9313 11.3241Z" fill="#BBBBBB"/>
</svg>
