<svg width="11" height="11" viewBox="0 0 11 11" fill="none" xmlns="http://www.w3.org/2000/svg">
<path fill-rule="evenodd" clip-rule="evenodd" d="M2 0C0.895431 0 0 0.895431 0 2V9C0 10.1046 0.895431 11 2 11H9C10.1046 11 11 10.1046 11 9V2C11 0.895431 10.1046 0 9 0H2ZM8.75 1.55C8.33434 1.55 8 1.88434 8 2.3C8 2.71566 8.33434 3.05 8.75 3.05C9.16566 3.05 9.5 2.71566 9.5 2.3C9.5 1.88434 9.16566 1.55 8.75 1.55ZM5.5 2.50001C3.84764 2.50001 2.5 3.84336 2.5 5.50001C2.5 7.15667 3.84335 8.50001 5.5 8.50001C7.15665 8.50001 8.5 7.15667 8.5 5.50001C8.5 3.84336 7.15665 2.50001 5.5 2.50001ZM5.5 7.41847C4.43991 7.41847 3.57725 6.55581 3.57725 5.49572C3.57725 4.43564 4.43991 3.57727 5.5 3.57727C6.56009 3.57727 7.41846 4.43993 7.41846 5.49572C7.41846 6.55152 6.55579 7.41847 5.5 7.41847Z" fill="#BBBBBB"/>
</svg>
