<svg width="120" height="120" viewBox="0 0 120 120" fill="none" xmlns="http://www.w3.org/2000/svg">
<path d="M54.8993 25.5C57.5936 20.8333 64.3294 20.8333 67.0237 25.5L106.861 94.5C109.555 99.1667 106.187 105 100.799 105H21.1244C15.7358 105 12.3679 99.1667 15.0622 94.5L54.8993 25.5Z" fill="#FF563F"/>
<path d="M54.8993 25.5C57.5936 20.8333 64.3294 20.8333 67.0237 25.5L106.861 94.5C109.555 99.1667 106.187 105 100.799 105H21.1244C15.7358 105 12.3679 99.1667 15.0622 94.5L54.8993 25.5Z" fill="#FF563F"/>
<rect x="58.9614" y="46" width="4" height="36" rx="2" fill="white"/>
<circle cx="60.9614" cy="88" r="2" fill="white"/>
</svg>
