<svg width="17" height="17" viewBox="0 0 17 17" fill="none" xmlns="http://www.w3.org/2000/svg">
<circle cx="8.5" cy="8.5" r="8" fill="white" stroke="#DDDDDD"/>
<path d="M7.9 5.7H8.8L8.62 10.2H8.08L7.9 5.7ZM7.855 11.64C7.855 11.502 7.903 11.385 7.999 11.289C8.101 11.193 8.218 11.145 8.35 11.145C8.488 11.145 8.605 11.193 8.701 11.289C8.797 11.385 8.845 11.502 8.845 11.64C8.845 11.772 8.797 11.889 8.701 11.991C8.605 12.087 8.488 12.135 8.35 12.135C8.218 12.135 8.101 12.087 7.999 11.991C7.903 11.889 7.855 11.772 7.855 11.64Z" fill="black"/>
</svg>
