<svg width="80" height="80" viewBox="0 0 80 80" fill="none" xmlns="http://www.w3.org/2000/svg">
<mask id="mask0_625_1266" style="mask-type:alpha" maskUnits="userSpaceOnUse" x="0" y="0" width="80" height="80">
<path d="M40 80C62.0914 80 80 62.0914 80 40C80 17.9086 62.0914 0 40 0C17.9086 0 0 17.9086 0 40C0 62.0914 17.9086 80 40 80Z" fill="white"/>
</mask>
<g mask="url(#mask0_625_1266)">
<path d="M40 79.5C61.8152 79.5 79.5 61.8152 79.5 40C79.5 18.1848 61.8152 0.5 40 0.5C18.1848 0.5 0.5 18.1848 0.5 40C0.5 61.8152 18.1848 79.5 40 79.5Z" stroke="#DDDFE2"/>
<rect x="18.4217" y="60.5789" width="21.3536" height="21.3536" fill="white" stroke="#1B1B1D" stroke-width="2.13536"/>
<rect x="18.4217" y="39.2254" width="21.3536" height="21.3536" fill="#1B1B1D" stroke="#1B1B1D" stroke-width="2.13536"/>
<rect x="18.4217" y="17.8719" width="21.3536" height="21.3536" fill="white" stroke="#1B1B1D" stroke-width="2.13536"/>
<rect x="18.4217" y="-2.41426" width="21.3536" height="21.3536" fill="#1B1B1D" stroke="#1B1B1D" stroke-width="2.13536"/>
<rect x="-2.93232" y="60.5789" width="21.3536" height="21.3536" fill="#1B1B1D" stroke="#1B1B1D" stroke-width="2.13536"/>
<rect x="-2.93232" y="39.2254" width="21.3536" height="21.3536" fill="white" stroke="#1B1B1D" stroke-width="2.13536"/>
<rect x="-2.93232" y="17.8719" width="21.3536" height="21.3536" fill="#1B1B1D" stroke="#1B1B1D" stroke-width="2.13536"/>
<rect x="-2.93232" y="-2.41426" width="21.3536" height="21.3536" fill="white" stroke="#1B1B1D" stroke-width="2.13536"/>
<rect x="39.7747" y="60.5789" width="21.3536" height="21.3536" fill="#1B1B1D" stroke="#1B1B1D" stroke-width="2.13536"/>
<rect x="39.7747" y="39.2254" width="21.3536" height="21.3536" fill="white" stroke="#1B1B1D" stroke-width="2.13536"/>
<rect x="39.7747" y="17.8719" width="21.3536" height="21.3536" fill="#1B1B1D" stroke="#1B1B1D" stroke-width="2.13536"/>
<rect x="39.7747" y="-2.41426" width="21.3536" height="21.3536" fill="white" stroke="#1B1B1D" stroke-width="2.13536"/>
<rect x="61.1287" y="60.5789" width="21.3536" height="21.3536" fill="white" stroke="#1B1B1D" stroke-width="2.13536"/>
<rect x="61.1287" y="39.2254" width="21.3536" height="21.3536" fill="#1B1B1D" stroke="#1B1B1D" stroke-width="2.13536"/>
<rect x="61.1287" y="17.8719" width="21.3536" height="21.3536" fill="white" stroke="#1B1B1D" stroke-width="2.13536"/>
<rect x="61.1287" y="-2.41426" width="21.3536" height="21.3536" fill="#1B1B1D" stroke="#1B1B1D" stroke-width="2.13536"/>
</g>
</svg>
