<svg width="50" height="50" viewBox="0 0 50 50" fill="none" xmlns="http://www.w3.org/2000/svg">
<g id="Buttons / IC_SNS_Pinterest">
<circle id="Ellipse 24" cx="25" cy="25" r="24.5" stroke="#DDDDDD"/>
<path id="Vector" fill-rule="evenodd" clip-rule="evenodd" d="M23.2363 28.6931C23.221 28.7505 23.1981 28.8008 23.1828 28.8582C22.3654 31.8816 22.2737 32.5495 21.4257 33.9571C21.0208 34.625 20.57 35.2569 20.0734 35.8602C20.02 35.932 19.9665 36.0182 19.8519 35.9966C19.7296 35.9751 19.722 35.8674 19.7067 35.774C19.5692 34.8548 19.5005 33.9355 19.531 33.0091C19.5768 31.8026 19.7296 31.3861 21.3875 24.8438C21.4104 24.7432 21.3875 24.6643 21.3493 24.5709C20.952 23.5655 20.8756 22.5457 21.2194 21.5116C21.9681 19.2781 24.6649 19.1058 25.1309 20.9514C25.4213 22.0933 24.6573 23.5798 24.0614 25.7846C23.5724 27.6015 25.8491 28.8941 27.7972 27.5656C29.5925 26.3447 30.2878 23.4075 30.1579 21.3249C29.8981 17.1811 25.0622 16.2835 21.991 17.6192C18.4767 19.1489 17.6746 23.2495 19.2636 25.1167C19.4623 25.3537 19.6227 25.4973 19.5539 25.7415C19.4546 26.1149 19.3629 26.4955 19.2483 26.869C19.1643 27.149 18.9198 27.2496 18.6219 27.1347C18.0336 26.9121 17.5523 26.5602 17.1551 26.1005C15.8028 24.5278 15.4208 21.4254 17.2009 18.797C19.1796 15.8813 22.8543 14.7035 26.2081 15.0626C30.219 15.4935 32.7478 18.0645 33.2214 20.9873C33.4353 22.3159 33.2825 25.5978 31.2962 27.9175C29.0119 30.5818 25.3067 30.7613 23.5954 29.124C23.4655 29.0019 23.3585 28.8511 23.2286 28.7002L23.2363 28.6931Z" fill="black"/>
</g>
</svg>
