<svg width="30" height="30" viewBox="0 0 30 30" fill="none" xmlns="http://www.w3.org/2000/svg">
<path d="M29.5 15C29.5 23.0081 23.0081 29.5 15 29.5C6.99187 29.5 0.5 23.0081 0.5 15C0.5 6.99187 6.99187 0.5 15 0.5C23.0081 0.5 29.5 6.99187 29.5 15Z" stroke="#DDDDDD"/>
<path fill-rule="evenodd" clip-rule="evenodd" d="M10 8C8.89543 8 8 8.89543 8 10V20C8 21.1046 8.89543 22 10 22H20C21.1046 22 22 21.1046 22 20V10C22 8.89543 21.1046 8 20 8H10ZM20.1034 9.30505C19.457 9.30505 18.9371 9.7963 18.9371 10.407C18.9371 11.0178 19.457 11.509 20.1034 11.509C20.7498 11.509 21.2697 11.0178 21.2697 10.407C21.2697 9.7963 20.7498 9.30505 20.1034 9.30505ZM14.9111 10.7194C12.2061 10.7194 10 12.7973 10 15.3597C10 17.9222 12.1991 20 14.9111 20C17.6231 20 19.8222 17.9222 19.8222 15.3597C19.8222 12.7973 17.6231 10.7194 14.9111 10.7194ZM14.9111 18.3271C13.1757 18.3271 11.7635 16.9928 11.7635 15.3531C11.7635 13.7134 13.1757 12.3857 14.9111 12.3857C16.6465 12.3857 18.0517 13.72 18.0517 15.3531C18.0517 16.9861 16.6395 18.3271 14.9111 18.3271Z" fill="#BBBBBB"/>
</svg>
