<svg width="18" height="18" viewBox="0 0 18 18" fill="none" xmlns="http://www.w3.org/2000/svg">
<mask id="mask0_180_1574" style="mask-type:luminance" maskUnits="userSpaceOnUse" x="8" y="7" width="8" height="8">
<path d="M15.671 9.13148C15.671 8.63797 15.6262 8.16154 15.545 7.70435H8.97656V10.4027H12.7309C12.5685 11.2743 12.077 12.0135 11.3398 12.507V14.2568H13.5941C14.9125 13.0433 15.6732 11.2551 15.6732 9.13148H15.671Z" fill="white"/>
</mask>
<g mask="url(#mask0_180_1574)">
<path d="M19.5472 3.83105H5.10059V18.1323H19.5472V3.83105Z" fill="#3E82F1"/>
</g>
<mask id="mask1_180_1574" style="mask-type:luminance" maskUnits="userSpaceOnUse" x="2" y="10" width="12" height="6">
<path d="M8.97658 15.9466C10.8591 15.9466 12.4381 15.3227 13.592 14.2567L11.3377 12.5069C10.7138 12.9257 9.91462 13.1735 8.97658 13.1735C7.16034 13.1735 5.62187 11.9472 5.07486 10.2979H2.74365V12.1053C3.89109 14.3848 6.25008 15.9466 8.97658 15.9466Z" fill="white"/>
</mask>
<g mask="url(#mask1_180_1574)">
<path d="M17.4658 6.42236H-1.13257V19.8199H17.4658V6.42236Z" fill="#32A753"/>
</g>
<mask id="mask2_180_1574" style="mask-type:luminance" maskUnits="userSpaceOnUse" x="2" y="5" width="4" height="8">
<path d="M5.07266 10.2979C4.93377 9.87917 4.85471 9.43265 4.85471 8.97332C4.85471 8.51399 4.93377 8.06747 5.07266 7.64873V5.84131H2.74146C2.26923 6.78348 2 7.84742 2 8.97332C2 10.0992 2.26923 11.1632 2.74146 12.1053L5.07266 10.2979Z" fill="white"/>
</mask>
<g mask="url(#mask2_180_1574)">
<path d="M8.94879 1.96582H-1.8739V15.9787H8.94879V1.96582Z" fill="#F9BB00"/>
</g>
<mask id="mask3_180_1574" style="mask-type:luminance" maskUnits="userSpaceOnUse" x="2" y="2" width="12" height="6">
<path d="M8.97658 4.77309C10.0001 4.77309 10.921 5.1256 11.6433 5.81567L13.6433 3.81597C12.436 2.69007 10.8569 2 8.97658 2C6.25008 2 3.89109 3.56173 2.74365 5.84131L5.07486 7.64873C5.62401 5.9994 7.16034 4.77309 8.97658 4.77309Z" fill="white"/>
</mask>
<g mask="url(#mask3_180_1574)">
<path d="M17.5171 -1.87549H-1.13257V11.5221H17.5171V-1.87549Z" fill="#E74133"/>
</g>
</svg>
