<svg width="21" height="21" viewBox="0 0 21 21" fill="none" xmlns="http://www.w3.org/2000/svg">
<path d="M8 16C8 16 9 17.5 10.5 17.5C12 17.5 13 16 13 16" stroke="black"/>
<path fill-rule="evenodd" clip-rule="evenodd" d="M10.4999 3.5C7.18623 3.5 4.49993 6.18629 4.49993 9.5V13V13.882L3.55272 15.7764L3.19092 16.5H3.99993H5.73327H15.2666H16.9999H17.809L17.4471 15.7764L16.4999 13.882V13V9.5C16.4999 6.18629 13.8136 3.5 10.4999 3.5ZM15.4999 13V9.5C15.4999 6.73858 13.2614 4.5 10.4999 4.5C7.73851 4.5 5.49993 6.73858 5.49993 9.5V13V14V14.118L5.44715 14.2236L4.80895 15.5H5.73327H15.2666H16.1909L15.5527 14.2236L15.4999 14.118V14V13Z" fill="black"/>
<path d="M12 6C12.6667 6.33333 14 7.4 14 9V11" stroke="black"/>
</svg>
