<svg width="30" height="30" viewBox="0 0 30 30" fill="none" xmlns="http://www.w3.org/2000/svg">
<path d="M29.5002 15C29.5002 23.0081 23.0083 29.5 15.0002 29.5C6.99204 29.5 0.500168 23.0081 0.500168 15C0.500168 6.99187 6.99204 0.5 15.0002 0.5C23.0083 0.5 29.5002 6.99187 29.5002 15Z" stroke="#DDDDDD"/>
<path fill-rule="evenodd" clip-rule="evenodd" d="M16.7956 20.8894C17.1427 20.8823 17.5075 20.8717 17.89 20.8575C17.8897 20.8568 17.8894 20.856 17.889 20.8553C18.6183 20.8272 19.3376 20.789 20.0469 20.7408C20.7765 20.6912 21.3042 20.624 21.63 20.539C21.9983 20.4398 22.3171 20.2556 22.5863 19.9865C22.8554 19.7173 23.0396 19.3985 23.1388 19.0302C23.2238 18.7044 23.291 18.3077 23.3406 17.8402C23.3902 17.3727 23.4292 16.9265 23.4575 16.5015C23.4793 16.1086 23.4927 15.7116 23.4978 15.3103C23.4985 15.3106 23.4993 15.3109 23.5 15.3113V14.9502C23.5 14.9501 23.5 14.9501 23.5 14.95C23.5 14.4259 23.4858 13.9089 23.4575 13.399C23.4575 13.3989 23.4575 13.3988 23.4575 13.3988C23.4292 12.9738 23.3902 12.5275 23.3406 12.06C23.291 11.5925 23.2238 11.1958 23.1388 10.87C23.0396 10.5017 22.8554 10.1829 22.5863 9.91375C22.3171 9.64458 21.9983 9.46042 21.63 9.36125C21.3042 9.27625 20.7765 9.20896 20.0469 9.15938C19.3173 9.10979 18.5771 9.07083 17.8263 9.0425C16.9479 9.01417 16.0058 9 15 9C14.9299 9 14.8602 9.00007 14.7908 9.00021L14.1287 9.00021C13.8596 9.00021 13.5515 9.00375 13.2044 9.01083C12.8573 9.01791 12.4925 9.02854 12.11 9.04271C12.1103 9.04344 12.1106 9.04417 12.111 9.04489C11.3816 9.07301 10.6624 9.11117 9.95312 9.15938C9.22354 9.20896 8.69583 9.27625 8.37 9.36125C8.00167 9.46042 7.68292 9.64458 7.41375 9.91375C7.14458 10.1829 6.96042 10.5017 6.86125 10.87C6.77625 11.1958 6.70896 11.5925 6.65938 12.06C6.60979 12.5275 6.57083 12.9738 6.5425 13.3988C6.52068 13.7916 6.50726 14.1886 6.50224 14.5899C6.5015 14.5896 6.50075 14.5893 6.5 14.589V14.95V14.9502C6.5 15.4744 6.51417 15.9915 6.5425 16.5015C6.57083 16.9265 6.60979 17.3727 6.65937 17.8402C6.70896 18.3077 6.77625 18.7044 6.86125 19.0302C6.96041 19.3985 7.14458 19.7173 7.41375 19.9865C7.68291 20.2556 8.00167 20.4398 8.37 20.539C8.69583 20.624 9.22354 20.6912 9.95312 20.7408C10.6827 20.7904 11.4229 20.8294 12.1737 20.8577C13.0521 20.886 13.9942 20.9002 15 20.9002C15.07 20.9002 15.1397 20.9001 15.2092 20.9H15.8713C16.1404 20.9 16.4485 20.8965 16.7956 20.8894Z" fill="#BBBBBB"/>
<path d="M17.7199 14.9502L13.2999 17.5002V12.4002L17.7199 14.9502Z" fill="white"/>
</svg>
