<svg width="20" height="20" viewBox="0 0 20 20" fill="none" xmlns="http://www.w3.org/2000/svg">
<path d="M11.5148 2.03291L11.515 2.03305L11.5241 2.02229C11.9269 1.54576 12.4298 1.16244 12.9977 0.899401C13.5656 0.636354 14.1846 0.5 14.8113 0.5C15.4379 0.5 16.0569 0.636354 16.6248 0.899401L16.8347 0.44629L16.6248 0.899401C17.1927 1.16244 17.6956 1.54576 18.0985 2.0223L18.1006 2.02481C19.0041 3.07939 19.5 4.41917 19.5 5.80383C19.5 7.1885 19.0041 8.52827 18.1006 9.58286L18.0975 9.58648L9.99949 19.2228L1.90249 9.58651L1.9025 9.58649L1.89939 9.58286C0.995904 8.52827 0.5 7.1885 0.5 5.80383C0.5 4.41917 0.995904 3.07939 1.89939 2.02481L1.8994 2.02481L1.90153 2.02229C2.30436 1.54576 2.8073 1.16244 3.37518 0.899401C3.94307 0.636354 4.56206 0.5 5.18873 0.5C5.81539 0.5 6.43439 0.636354 7.00228 0.899401C7.57016 1.16244 8.07309 1.54576 8.47593 2.02229L8.47578 2.02242L8.48501 2.03274L9.6267 3.30986L9.99929 3.72664L10.3721 3.31003L11.5148 2.03291Z" stroke="white" stroke-miterlimit="10"/>
</svg>
