<svg width="14" height="14" viewBox="0 0 14 14" fill="none" xmlns="http://www.w3.org/2000/svg">
<path d="M12.9132 10.5042L11.5363 9.09276C11.3756 8.92884 11.2851 8.70646 11.2849 8.47451V4.87583C11.2826 3.74039 10.8491 2.6501 10.0756 1.83428C9.30199 1.01845 8.24867 0.54067 7.13712 0.501415C6.57537 0.486616 6.0165 0.588019 5.49415 0.799517C4.9718 1.01102 4.49677 1.32824 4.09767 1.73208C3.66373 2.16325 3.31805 2.67816 3.0807 3.24688C2.84335 3.8156 2.71906 4.4268 2.71506 5.04497V8.47451C2.71486 8.70646 2.62444 8.92884 2.46368 9.09276L1.08679 10.5042C1.04517 10.5433 1.01669 10.5948 1.0054 10.6513C0.994119 10.7079 1.00061 10.7666 1.02394 10.8192C1.04537 10.8724 1.08177 10.918 1.12853 10.9502C1.1753 10.9824 1.23035 10.9997 1.28675 11H12.7132C12.7696 10.9997 12.8247 10.9824 12.8715 10.9502C12.9182 10.918 12.9546 10.8724 12.9761 10.8192C12.9994 10.7666 13.0059 10.7079 12.9946 10.6513C12.9833 10.5948 12.9548 10.5433 12.9132 10.5042ZM1.97805 10.4167L2.86932 9.50687C3.00213 9.3714 3.10736 9.21043 3.17894 9.03325C3.25052 8.85606 3.28704 8.66617 3.28639 8.47451V5.04497C3.28706 4.50143 3.39403 3.96349 3.60104 3.46272C3.80804 2.96194 4.11091 2.5084 4.49188 2.1287C4.83912 1.78385 5.25068 1.51374 5.70214 1.33439C6.1536 1.15505 6.63575 1.07013 7.11998 1.08467C8.08442 1.11502 8.99929 1.52799 9.67029 2.23587C10.3413 2.94375 10.7156 3.89077 10.7136 4.87583V8.47451C10.713 8.66617 10.7495 8.85606 10.8211 9.03325C10.8926 9.21043 10.9979 9.3714 11.1307 9.50687L12.0219 10.4167H1.97805Z" fill="#999999" stroke="#999999" stroke-width="0.2"/>
<path d="M9.26129 12.3309H4.30949C4.21415 12.3309 4.12271 12.3687 4.05529 12.4362C3.98787 12.5036 3.95 12.595 3.95 12.6903C3.95 12.7857 3.98787 12.8771 4.05529 12.9445C4.12271 13.012 4.21415 13.0498 4.30949 13.0498H9.26129C9.35664 13.0498 9.44807 13.012 9.51549 12.9445C9.58291 12.8771 9.62078 12.7857 9.62078 12.6903C9.62078 12.595 9.58291 12.5036 9.51549 12.4362C9.44807 12.3687 9.35664 12.3309 9.26129 12.3309Z" fill="#999999" stroke="#999999" stroke-width="0.1"/>
</svg>
