<svg width="19" height="19" viewBox="0 0 19 19" fill="none" xmlns="http://www.w3.org/2000/svg">
<circle cx="9.5" cy="9.5" r="9" fill="white" stroke="#DDDDDD"/>
<path d="M11.16 8C11.16 8.25333 11.0833 8.5 10.93 8.74C10.7767 8.97333 10.5567 9.16667 10.27 9.32C9.98333 9.47333 9.64 9.55 9.24 9.55H8.98L9.18 11.3H9.78L9.85 10.1C10.2233 10.08 10.57 9.97667 10.89 9.79C11.21 9.59667 11.47 9.34667 11.67 9.04C11.87 8.72667 11.97 8.38 11.97 8C11.97 7.7 11.9133 7.42333 11.8 7.17C11.6933 6.91667 11.54 6.69667 11.34 6.51C11.1467 6.31667 10.9167 6.16667 10.65 6.06C10.39 5.95333 10.1033 5.9 9.79 5.9C9.39667 5.9 9.06333 5.95 8.79 6.05C8.52333 6.14333 8.29667 6.28 8.11 6.46C7.92333 6.63333 7.75333 6.83667 7.6 7.07L8.25 7.48C8.40333 7.22667 8.59667 7.02667 8.83 6.88C9.07 6.72667 9.35667 6.65 9.69 6.65C9.99 6.65 10.25 6.70333 10.47 6.81C10.69 6.91667 10.86 7.07 10.98 7.27C11.1 7.47 11.16 7.71333 11.16 8ZM8.95 12.6C8.95 12.7467 9.00333 12.8767 9.11 12.99C9.22333 13.0967 9.35333 13.15 9.5 13.15C9.65333 13.15 9.78333 13.0967 9.89 12.99C9.99667 12.8767 10.05 12.7467 10.05 12.6C10.05 12.4467 9.99667 12.3167 9.89 12.21C9.78333 12.1033 9.65333 12.05 9.5 12.05C9.35333 12.05 9.22333 12.1033 9.11 12.21C9.00333 12.3167 8.95 12.4467 8.95 12.6Z" fill="black"/>
</svg>
