<svg width="80" height="80" viewBox="0 0 80 80" fill="none" xmlns="http://www.w3.org/2000/svg">
<mask id="mask0_3_40" style="mask-type:alpha" maskUnits="userSpaceOnUse" x="0" y="0" width="80" height="80">
<path d="M40 80C62.0914 80 80 62.0914 80 40C80 17.9086 62.0914 0 40 0C17.9086 0 0 17.9086 0 40C0 62.0914 17.9086 80 40 80Z" fill="black"/>
<path d="M40 80C62.0914 80 80 62.0914 80 40C80 17.9086 62.0914 0 40 0C17.9086 0 0 17.9086 0 40C0 62.0914 17.9086 80 40 80Z" stroke="black"/>
</mask>
<g mask="url(#mask0_3_40)">
<path d="M40 78.5C61.8152 78.5 79.5 60.8152 79.5 39C79.5 17.1848 61.8152 -0.5 40 -0.5C18.1848 -0.5 0.5 17.1848 0.5 39C0.5 60.8152 18.1848 78.5 40 78.5Z" fill="#181818"/>
<path d="M40.5605 33.625C45.6346 33.625 49.748 29.5116 49.748 24.4375C49.748 19.3634 45.6346 15.25 40.5605 15.25C35.4864 15.25 31.373 19.3634 31.373 24.4375C31.373 29.5116 35.4864 33.625 40.5605 33.625Z" fill="white"/>
<path d="M67.6875 45.875C72.7616 45.875 76.875 41.7616 76.875 36.6875C76.875 31.6134 72.7616 27.5 67.6875 27.5C62.6134 27.5 58.5 31.6134 58.5 36.6875C58.5 41.7616 62.6134 45.875 67.6875 45.875Z" fill="white"/>
<path d="M67.6875 80C72.7616 80 76.875 75.8866 76.875 70.8125C76.875 65.7384 72.7616 61.625 67.6875 61.625C62.6134 61.625 58.5 65.7384 58.5 70.8125C58.5 75.8866 62.6134 80 67.6875 80Z" fill="white"/>
<path d="M67.6875 14.375C72.7616 14.375 76.875 10.2616 76.875 5.1875C76.875 0.113384 72.7616 -4 67.6875 -4C62.6134 -4 58.5 0.113384 58.5 5.1875C58.5 10.2616 62.6134 14.375 67.6875 14.375Z" fill="white"/>
<path d="M14.2324 45.875C19.3065 45.875 23.4199 41.7616 23.4199 36.6875C23.4199 31.6134 19.3065 27.5 14.2324 27.5C9.15829 27.5 5.04491 31.6134 5.04491 36.6875C5.04491 41.7616 9.15829 45.875 14.2324 45.875Z" fill="white"/>
<path d="M14.2324 80C19.3065 80 23.4199 75.8866 23.4199 70.8125C23.4199 65.7384 19.3065 61.625 14.2324 61.625C9.15829 61.625 5.04491 65.7384 5.04491 70.8125C5.04491 75.8866 9.15829 80 14.2324 80Z" fill="white"/>
<path d="M14.2324 14.375C19.3065 14.375 23.4199 10.2616 23.4199 5.1875C23.4199 0.113384 19.3065 -4 14.2324 -4C9.15829 -4 5.04491 0.113384 5.04491 5.1875C5.04491 10.2616 9.15829 14.375 14.2324 14.375Z" fill="white"/>
<path d="M40.5605 64.25C45.6346 64.25 49.748 60.1366 49.748 55.0625C49.748 49.9884 45.6346 45.875 40.5605 45.875C35.4864 45.875 31.373 49.9884 31.373 55.0625C31.373 60.1366 35.4864 64.25 40.5605 64.25Z" fill="white"/>
</g>
</svg>
