<svg width="50" height="50" viewBox="0 0 50 50" fill="none" xmlns="http://www.w3.org/2000/svg">
<g id="Buttons / IC_SNS_Twitter">
<path id="Vector" d="M49.5 25C49.5 38.531 38.531 49.5 25 49.5C11.469 49.5 0.5 38.531 0.5 25C0.5 11.469 11.469 0.5 25 0.5C38.531 0.5 49.5 11.469 49.5 25Z" stroke="#DDDDDD"/>
<g id="link">
<mask id="mask0_853_24839" style="mask-type:alpha" maskUnits="userSpaceOnUse" x="9" y="9" width="33" height="33">
<rect id="Bounding box" x="9" y="9" width="32.5" height="32.5" fill="#D9D9D9"/>
</mask>
<g mask="url(#mask0_853_24839)">
<path id="link_2" d="M23.6248 31.75H18.7498C16.9514 31.75 15.4185 31.1155 14.151 29.8465C12.8835 28.5775 12.2498 27.0428 12.2498 25.2423C12.2498 23.4419 12.8835 21.9097 14.151 20.6458C15.4185 19.3819 16.9514 18.75 18.7498 18.75H23.6248V21.1875H18.7498C17.6213 21.1875 16.6621 21.5825 15.8722 22.3724C15.0822 23.1623 14.6873 24.1215 14.6873 25.25C14.6873 26.3785 15.0822 27.3377 15.8722 28.1276C16.6621 28.9175 17.6213 29.3125 18.7498 29.3125H23.6248V31.75ZM20.3748 26.4688V24.0313H30.1248V26.4688H20.3748ZM26.8748 31.75V29.3125H31.7498C32.8782 29.3125 33.8374 28.9175 34.6274 28.1276C35.4173 27.3377 35.8123 26.3785 35.8123 25.25C35.8123 24.1215 35.4173 23.1623 34.6274 22.3724C33.8374 21.5825 32.8782 21.1875 31.7498 21.1875H26.8748V18.75H31.7498C33.5481 18.75 35.081 19.3845 36.3485 20.6535C37.616 21.9225 38.2498 23.4572 38.2498 25.2577C38.2498 27.0581 37.616 28.5903 36.3485 29.8542C35.081 31.1181 33.5481 31.75 31.7498 31.75H26.8748Z" fill="#1C1B1F"/>
</g>
</g>
</g>
</svg>
