<svg width="22" height="23" viewBox="0 0 22 23" fill="none" xmlns="http://www.w3.org/2000/svg">
<g id="Group 282">
<path id="Vector" d="M14.3757 17.9514H21V4.6377H1V17.9514H8.52286L11 21.9997L13.4743 17.9514H14.3757Z" stroke="black" stroke-miterlimit="10"/>
<path id="Vector_2" d="M15.9472 11.1333C16.4419 11.1333 16.8429 10.5516 16.8429 9.8342C16.8429 9.11676 16.4419 8.53516 15.9472 8.53516C15.4525 8.53516 15.0515 9.11676 15.0515 9.8342C15.0515 10.5516 15.4525 11.1333 15.9472 11.1333Z" fill="black"/>
<path id="Vector_3" d="M5.9828 11.1333C6.47749 11.1333 6.87851 10.5516 6.87851 9.8342C6.87851 9.11676 6.47749 8.53516 5.9828 8.53516C5.48811 8.53516 5.08708 9.11676 5.08708 9.8342C5.08708 10.5516 5.48811 11.1333 5.9828 11.1333Z" fill="black"/>
<path id="Vector_4" d="M11.0357 0V4.64993" stroke="black" stroke-miterlimit="10"/>
</g>
</svg>
