<svg width="18" height="18" viewBox="0 0 18 18" fill="none" xmlns="http://www.w3.org/2000/svg">
<g clip-path="url(#clip0_180_1560)">
<path d="M12.807 9.43696C12.7906 7.66557 14.2971 6.81511 14.3636 6.77569C13.5171 5.57212 12.1971 5.40437 11.7289 5.38424C10.6051 5.27437 9.5357 6.02754 8.96731 6.02754C8.39891 6.02754 7.51782 5.40269 6.58834 5.42031C5.36171 5.43624 4.23529 6.11225 3.60384 7.17324C2.33229 9.31535 3.27731 12.4908 4.51862 14.2278C5.1233 15.0782 5.84459 16.0335 6.7922 15.9991C7.70699 15.9648 8.05252 15.4263 9.15649 15.4263C10.2604 15.4263 10.5706 15.9991 11.5372 15.9849C12.5193 15.9648 13.1422 15.1143 13.7417 14.2638C14.4362 13.2766 14.7247 12.3213 14.7411 12.271C14.7195 12.2635 12.8251 11.5573 12.8061 9.43696H12.807Z" fill="black"/>
<path d="M10.9904 4.23436C11.4949 3.64306 11.8344 2.81943 11.7411 2C11.0163 2.02684 10.1378 2.47052 9.61866 3.05931C9.15133 3.58519 8.74101 4.42559 8.85244 5.22741C9.66012 5.28696 10.4885 4.82734 10.9904 4.23436Z" fill="black"/>
</g>
<defs>
<clipPath id="clip0_180_1560">
<rect width="11.7419" height="14" fill="white" transform="translate(3 2)"/>
</clipPath>
</defs>
</svg>
