<svg width="40" height="40" viewBox="0 0 40 40" fill="none" xmlns="http://www.w3.org/2000/svg">
<path d="M17.0366 23.526L23.2171 12.4561" stroke="black" stroke-miterlimit="10"/>
<path d="M15.8643 17.2737C17.1736 17.2737 18.2351 16.2581 18.2351 15.0053C18.2351 13.7524 17.1736 12.7368 15.8643 12.7368C14.5549 12.7368 13.4934 13.7524 13.4934 15.0053C13.4934 16.2581 14.5549 17.2737 15.8643 17.2737Z" stroke="black" stroke-miterlimit="10"/>
<path d="M24.136 23.3289C25.4454 23.3289 26.5068 22.3133 26.5068 21.0604C26.5068 19.8076 25.4454 18.792 24.136 18.792C22.8266 18.792 21.7651 19.8076 21.7651 21.0604C21.7651 22.3133 22.8266 23.3289 24.136 23.3289Z" stroke="black" stroke-miterlimit="10"/>
<path d="M33 34.9874V32.1409V4H7V31.9901V34.9874H9.64407L12.2881 32.1409L14.9322 34.9874L17.66 32.1849L20 35L22.5383 32.1409L25.1185 35L27.7119 32.1409L30.3559 34.9874H33Z" stroke="black" stroke-miterlimit="10"/>
</svg>
