<svg width="80" height="80" viewBox="0 0 80 80" fill="none" xmlns="http://www.w3.org/2000/svg">
<mask id="mask0_625_1267" style="mask-type:alpha" maskUnits="userSpaceOnUse" x="0" y="0" width="80" height="80">
<path d="M40 80C62.0914 80 80 62.0914 80 40C80 17.9086 62.0914 0 40 0C17.9086 0 0 17.9086 0 40C0 62.0914 17.9086 80 40 80Z" fill="white"/>
</mask>
<g mask="url(#mask0_625_1267)">
<path d="M40 79.5C61.8152 79.5 79.5 61.8152 79.5 40C79.5 18.1848 61.8152 0.5 40 0.5C18.1848 0.5 0.5 18.1848 0.5 40C0.5 61.8152 18.1848 79.5 40 79.5Z" stroke="#DDDFE2"/>
<mask id="path-3-outside-1_625_1267" maskUnits="userSpaceOnUse" x="1.45444" y="2.95455" width="82.7315" height="82.7315" fill="black">
<rect fill="white" x="1.45444" y="2.95455" width="82.7315" height="82.7315"/>
<path d="M24.2931 79.786C23.7679 80.3112 23.1828 80.7251 22.5377 81.0277C21.8984 81.3359 21.239 81.5272 20.5597 81.6014C19.8918 81.6756 19.241 81.6299 18.6073 81.4644L19.7205 78.2618C20.143 78.3874 20.5626 78.3846 20.9793 78.2533C21.4017 78.1163 21.7756 77.8851 22.101 77.5597C22.4493 77.2115 22.7176 76.8233 22.9059 76.3951C23.1 75.9727 23.1714 75.5531 23.12 75.1364C23.0801 74.7196 22.8831 74.3457 22.5292 74.0146L19.8404 71.3259L20.1316 71.0347L12.9729 63.8761L15.0109 61.8381L24.8925 71.7198C25.1209 71.9481 25.3236 72.1736 25.5005 72.3962C25.6889 72.6189 25.8573 72.8558 26.0057 73.1069C26.4225 73.8205 26.6108 74.5626 26.5709 75.3333C26.5366 76.0983 26.3169 76.8604 25.9115 77.6196C25.5119 78.3846 24.9725 79.1067 24.2931 79.786ZM19.9774 75.8813C19.1268 76.7319 18.1678 77.2628 17.1003 77.474C16.0328 77.6853 14.951 77.6025 13.8549 77.2257C12.7646 76.8432 11.757 76.1896 10.8322 75.2648C9.89027 74.3229 9.23377 73.3067 8.86271 72.2164C8.49165 71.1146 8.42315 70.0243 8.6572 68.9454C8.89126 67.8664 9.4507 66.8845 10.3355 65.9997C11.2147 65.1206 12.168 64.5954 13.1956 64.4241C14.2231 64.2529 15.2592 64.3813 16.3039 64.8095C17.3486 65.2376 18.3333 65.9141 19.2581 66.8389C20.1829 67.7637 20.8565 68.7513 21.279 69.8017C21.7071 70.8463 21.827 71.891 21.6386 72.9357C21.4502 73.9804 20.8965 74.9623 19.9774 75.8813ZM18.282 73.4323C18.8014 72.9129 19.0983 72.382 19.1725 71.8396C19.2524 71.2916 19.1497 70.7379 18.8642 70.1784C18.5788 69.619 18.1564 69.0595 17.5969 68.5001C17.0375 67.9406 16.478 67.5182 15.9186 67.2328C15.3591 66.9473 14.8111 66.8389 14.2745 66.9074C13.7436 66.9702 13.2355 67.2442 12.7503 67.7294C12.2308 68.2489 11.9311 68.8055 11.8512 69.3992C11.7713 69.9815 11.8655 70.5666 12.1338 71.1546C12.3964 71.7369 12.7845 72.2849 13.2983 72.7987C13.8178 73.3182 14.3687 73.7149 14.951 73.9889C15.5275 74.2572 16.1013 74.3571 16.6721 74.2886C17.243 74.2201 17.7796 73.9347 18.282 73.4323Z"/>
<path d="M26.6569 68.6881L17.4089 59.4401L19.464 57.385L21.7247 59.6456L21.2109 59.5771C21.0111 59.1375 20.8798 58.6865 20.817 58.2241C20.7542 57.7617 20.7827 57.2993 20.9026 56.8369C20.9882 56.4773 21.1253 56.1291 21.3136 55.7923C21.4963 55.4498 21.719 55.1301 21.9815 54.8332C22.2384 54.5307 22.5239 54.2566 22.8378 54.0112L25.0128 56.1862C24.676 56.3631 24.3506 56.6371 24.0367 57.0082C23.7227 57.3679 23.4943 57.7503 23.3516 58.1556C23.2032 58.5552 23.1404 58.9549 23.1632 59.3545C23.1804 59.7484 23.2831 60.1365 23.4715 60.519C23.6542 60.8958 23.9225 61.2611 24.2764 61.6151L29.0032 66.3418L26.6569 68.6881Z"/>
<path d="M36.3565 59.5023C35.6943 60.1645 35.0064 60.6012 34.2928 60.8124C33.5792 61.0122 32.8913 61.0208 32.2291 60.8381C31.5669 60.644 30.9789 60.2901 30.4652 59.7763C30.037 59.3482 29.7116 58.8915 29.489 58.4062C29.2663 57.921 29.1664 57.3987 29.1893 56.8392C29.2121 56.2684 29.3805 55.6433 29.6945 54.9639C29.9114 54.4958 30.2083 53.9763 30.585 53.4055C30.9618 52.8346 31.4071 52.2067 31.9209 51.5216C32.4289 50.8309 32.9884 50.0716 33.5992 49.2439L33.2224 50.5455C32.6744 49.9974 32.1406 49.7263 31.6212 49.732C31.1017 49.7377 30.5337 50.0488 29.9171 50.6653C29.5746 51.0079 29.3006 51.4474 29.0951 51.984C28.8896 52.5206 28.9238 53.0744 29.1978 53.6452L26.4234 55.0838C25.8925 54.0848 25.7099 53.023 25.8754 51.8984C26.041 50.7738 26.6803 49.6549 27.7935 48.5417C28.6098 47.7254 29.4604 47.126 30.3453 46.7435C31.2301 46.361 32.1435 46.3154 33.0854 46.6065C33.6106 46.7663 34.0616 47.0004 34.4384 47.3087C34.8151 47.6169 35.2147 47.9823 35.6372 48.4047L41.2887 54.0563L39.2507 56.0942L37.3498 54.1933L38.0348 54.296C38.2061 55.3693 38.1689 56.3083 37.9235 57.1132C37.678 57.9067 37.1557 58.7031 36.3565 59.5023ZM35.0206 57.1732C35.4488 56.745 35.7342 56.3112 35.8769 55.8716C36.0197 55.4206 36.0796 55.0125 36.0568 54.6471C36.0396 54.276 35.9968 53.9935 35.9283 53.7994C35.797 53.4283 35.5744 53.0687 35.2604 52.7204C34.9464 52.3608 34.6781 52.0697 34.4555 51.847L35.3118 51.3332C34.7352 52.1382 34.2728 52.7947 33.9246 53.3027C33.5706 53.8051 33.2938 54.219 33.094 54.5444C32.8942 54.8697 32.7315 55.1694 32.6059 55.4435C32.4689 55.7631 32.3833 56.0486 32.349 56.2998C32.3148 56.5395 32.3262 56.7564 32.3833 56.9505C32.446 57.1389 32.5545 57.3102 32.7086 57.4643C32.9199 57.6755 33.1539 57.8068 33.4108 57.8582C33.6677 57.8982 33.9331 57.8611 34.2072 57.7469C34.4812 57.6327 34.7523 57.4415 35.0206 57.1732Z"/>
<path d="M48.3105 47.5483C47.3914 48.4674 46.4095 49.0211 45.3648 49.2095C44.3201 49.3979 43.2726 49.2809 42.2222 48.8584C41.1775 48.4303 40.1928 47.7538 39.268 46.829C38.3432 45.9042 37.6667 44.9195 37.2386 43.8748C36.8104 42.8301 36.682 41.794 36.8532 40.7664C37.0245 39.7389 37.5497 38.7855 38.4288 37.9064C39.3137 37.0216 40.2955 36.4621 41.3745 36.2281C42.4534 35.994 43.5409 36.0654 44.637 36.4422C45.733 36.8075 46.752 37.4611 47.6939 38.4031C48.6187 39.3279 49.2695 40.3383 49.6463 41.4344C50.0288 42.5247 50.1144 43.6036 49.9032 44.6711C49.692 45.7387 49.1611 46.6977 48.3105 47.5483ZM47.6083 55.9571L34.2501 42.5989L36.3052 40.5438L42.6418 46.8804L42.9329 46.5892L49.9546 53.6109L47.6083 55.9571ZM45.8615 45.8528C46.3638 45.3505 46.6493 44.8139 46.7178 44.243C46.7863 43.6721 46.6864 43.0984 46.4181 42.5218C46.144 41.9396 45.7473 41.3887 45.2278 40.8692C44.714 40.3554 44.166 39.9672 43.5837 39.7046C42.9957 39.4363 42.4077 39.345 41.8198 39.4306C41.2318 39.5048 40.678 39.8017 40.1585 40.3212C39.6733 40.8064 39.3964 41.3173 39.3279 41.8539C39.2651 42.3848 39.3765 42.93 39.6619 43.4895C39.9473 44.0489 40.3698 44.6083 40.9292 45.1678C41.4887 45.7272 42.0481 46.1497 42.6075 46.4351C43.167 46.7205 43.7179 46.8262 44.2602 46.7519C44.8082 46.672 45.342 46.3723 45.8615 45.8528Z"/>
<path d="M60.5045 34.8405L56.1374 30.4734C55.9262 30.2622 55.6465 30.0053 55.2982 29.7027C54.9443 29.3944 54.5418 29.1347 54.0909 28.9235C53.6399 28.7123 53.1661 28.6323 52.6694 28.6837C52.1785 28.7294 51.6847 29.0005 51.188 29.4972C50.9882 29.697 50.8055 29.9425 50.64 30.2336C50.4744 30.5248 50.3831 30.8616 50.366 31.244C50.3431 31.6208 50.4402 32.049 50.6571 32.5285C50.8798 33.0023 51.2794 33.5275 51.8559 34.1041L49.8865 34.8062C49.1557 34.0755 48.6191 33.2421 48.2766 32.3058C47.9341 31.3696 47.8627 30.4077 48.0625 29.4201C48.2681 28.4268 48.8246 27.4763 49.7323 26.5687C50.4573 25.8437 51.1709 25.3756 51.873 25.1644C52.5752 24.9531 53.2403 24.9103 53.8682 25.0359C54.5019 25.1558 55.0784 25.367 55.5979 25.6696C56.1117 25.9664 56.5484 26.2718 56.9081 26.5858C57.2677 26.8998 57.5246 27.1338 57.6787 27.288L62.8679 32.4771L60.5045 34.8405ZM54.185 41.1599L41.8544 28.8293L43.9266 26.7571L50.2632 33.0936L50.5544 32.8025L56.5484 38.7966L54.185 41.1599Z"/>
<path d="M54.7287 19.5515L52.6736 17.4964L55.0027 15.1672L57.0578 17.2224L54.7287 19.5515ZM65.2611 30.0839L56.0131 20.8359L58.3422 18.5068L67.5902 27.7548L65.2611 30.0839Z"/>
<path d="M74.4902 21.3686C73.5311 22.3276 72.495 22.9356 71.3818 23.1925C70.2687 23.4494 69.1612 23.3923 68.0594 23.0212C66.9577 22.6501 65.9444 22.0022 65.0196 21.0774C64.0834 20.1412 63.4354 19.1165 63.0758 18.0033C62.7219 16.8844 62.679 15.7684 62.9473 14.6552C63.2157 13.542 63.8208 12.5145 64.7627 11.5726C65.853 10.4822 67.0433 9.84569 68.3334 9.66302C69.6236 9.46892 70.8481 9.74579 72.0069 10.4936L70.2944 13.4393C69.6778 13.0968 69.0641 12.9626 68.4533 13.0368C67.8482 13.1053 67.3316 13.3536 66.9034 13.7818C66.4125 14.2727 66.1299 14.7951 66.0557 15.3488C65.9758 15.8968 66.0671 16.4506 66.3297 17.01C66.5866 17.5638 66.9719 18.0975 67.4857 18.6113C68.2906 19.4162 69.1212 19.8929 69.9775 20.0413C70.8338 20.1783 71.6131 19.8957 72.3152 19.1936C72.8404 18.6684 73.1201 18.1489 73.1544 17.6351C73.1886 17.1213 73.0516 16.5733 72.7434 15.991L75.6205 14.1072C76.3398 15.3517 76.5995 16.6047 76.3997 17.8663C76.1999 19.1279 75.5634 20.2953 74.4902 21.3686Z"/>
</mask>
<path d="M24.2931 79.786C23.7679 80.3112 23.1828 80.7251 22.5377 81.0277C21.8984 81.3359 21.239 81.5272 20.5597 81.6014C19.8918 81.6756 19.241 81.6299 18.6073 81.4644L19.7205 78.2618C20.143 78.3874 20.5626 78.3846 20.9793 78.2533C21.4017 78.1163 21.7756 77.8851 22.101 77.5597C22.4493 77.2115 22.7176 76.8233 22.9059 76.3951C23.1 75.9727 23.1714 75.5531 23.12 75.1364C23.0801 74.7196 22.8831 74.3457 22.5292 74.0146L19.8404 71.3259L20.1316 71.0347L12.9729 63.8761L15.0109 61.8381L24.8925 71.7198C25.1209 71.9481 25.3236 72.1736 25.5005 72.3962C25.6889 72.6189 25.8573 72.8558 26.0057 73.1069C26.4225 73.8205 26.6108 74.5626 26.5709 75.3333C26.5366 76.0983 26.3169 76.8604 25.9115 77.6196C25.5119 78.3846 24.9725 79.1067 24.2931 79.786ZM19.9774 75.8813C19.1268 76.7319 18.1678 77.2628 17.1003 77.474C16.0328 77.6853 14.951 77.6025 13.8549 77.2257C12.7646 76.8432 11.757 76.1896 10.8322 75.2648C9.89027 74.3229 9.23377 73.3067 8.86271 72.2164C8.49165 71.1146 8.42315 70.0243 8.6572 68.9454C8.89126 67.8664 9.4507 66.8845 10.3355 65.9997C11.2147 65.1206 12.168 64.5954 13.1956 64.4241C14.2231 64.2529 15.2592 64.3813 16.3039 64.8095C17.3486 65.2376 18.3333 65.9141 19.2581 66.8389C20.1829 67.7637 20.8565 68.7513 21.279 69.8017C21.7071 70.8463 21.827 71.891 21.6386 72.9357C21.4502 73.9804 20.8965 74.9623 19.9774 75.8813ZM18.282 73.4323C18.8014 72.9129 19.0983 72.382 19.1725 71.8396C19.2524 71.2916 19.1497 70.7379 18.8642 70.1784C18.5788 69.619 18.1564 69.0595 17.5969 68.5001C17.0375 67.9406 16.478 67.5182 15.9186 67.2328C15.3591 66.9473 14.8111 66.8389 14.2745 66.9074C13.7436 66.9702 13.2355 67.2442 12.7503 67.7294C12.2308 68.2489 11.9311 68.8055 11.8512 69.3992C11.7713 69.9815 11.8655 70.5666 12.1338 71.1546C12.3964 71.7369 12.7845 72.2849 13.2983 72.7987C13.8178 73.3182 14.3687 73.7149 14.951 73.9889C15.5275 74.2572 16.1013 74.3571 16.6721 74.2886C17.243 74.2201 17.7796 73.9347 18.282 73.4323Z" stroke="#1B1B1D" stroke-width="0.865614" mask="url(#path-3-outside-1_625_1267)"/>
<path d="M26.6569 68.6881L17.4089 59.4401L19.464 57.385L21.7247 59.6456L21.2109 59.5771C21.0111 59.1375 20.8798 58.6865 20.817 58.2241C20.7542 57.7617 20.7827 57.2993 20.9026 56.8369C20.9882 56.4773 21.1253 56.1291 21.3136 55.7923C21.4963 55.4498 21.719 55.1301 21.9815 54.8332C22.2384 54.5307 22.5239 54.2566 22.8378 54.0112L25.0128 56.1862C24.676 56.3631 24.3506 56.6371 24.0367 57.0082C23.7227 57.3679 23.4943 57.7503 23.3516 58.1556C23.2032 58.5552 23.1404 58.9549 23.1632 59.3545C23.1804 59.7484 23.2831 60.1365 23.4715 60.519C23.6542 60.8958 23.9225 61.2611 24.2764 61.6151L29.0032 66.3418L26.6569 68.6881Z" stroke="#1B1B1D" stroke-width="0.865614" mask="url(#path-3-outside-1_625_1267)"/>
<path d="M36.3565 59.5023C35.6943 60.1645 35.0064 60.6012 34.2928 60.8124C33.5792 61.0122 32.8913 61.0208 32.2291 60.8381C31.5669 60.644 30.9789 60.2901 30.4652 59.7763C30.037 59.3482 29.7116 58.8915 29.489 58.4062C29.2663 57.921 29.1664 57.3987 29.1893 56.8392C29.2121 56.2684 29.3805 55.6433 29.6945 54.9639C29.9114 54.4958 30.2083 53.9763 30.585 53.4055C30.9618 52.8346 31.4071 52.2067 31.9209 51.5216C32.4289 50.8309 32.9884 50.0716 33.5992 49.2439L33.2224 50.5455C32.6744 49.9974 32.1406 49.7263 31.6212 49.732C31.1017 49.7377 30.5337 50.0488 29.9171 50.6653C29.5746 51.0079 29.3006 51.4474 29.0951 51.984C28.8896 52.5206 28.9238 53.0744 29.1978 53.6452L26.4234 55.0838C25.8925 54.0848 25.7099 53.023 25.8754 51.8984C26.041 50.7738 26.6803 49.6549 27.7935 48.5417C28.6098 47.7254 29.4604 47.126 30.3453 46.7435C31.2301 46.361 32.1435 46.3154 33.0854 46.6065C33.6106 46.7663 34.0616 47.0004 34.4384 47.3087C34.8151 47.6169 35.2147 47.9823 35.6372 48.4047L41.2887 54.0563L39.2507 56.0942L37.3498 54.1933L38.0348 54.296C38.2061 55.3693 38.1689 56.3083 37.9235 57.1132C37.678 57.9067 37.1557 58.7031 36.3565 59.5023ZM35.0206 57.1732C35.4488 56.745 35.7342 56.3112 35.8769 55.8716C36.0197 55.4206 36.0796 55.0125 36.0568 54.6471C36.0396 54.276 35.9968 53.9935 35.9283 53.7994C35.797 53.4283 35.5744 53.0687 35.2604 52.7204C34.9464 52.3608 34.6781 52.0697 34.4555 51.847L35.3118 51.3332C34.7352 52.1382 34.2728 52.7947 33.9246 53.3027C33.5706 53.8051 33.2938 54.219 33.094 54.5444C32.8942 54.8697 32.7315 55.1694 32.6059 55.4435C32.4689 55.7631 32.3833 56.0486 32.349 56.2998C32.3148 56.5395 32.3262 56.7564 32.3833 56.9505C32.446 57.1389 32.5545 57.3102 32.7086 57.4643C32.9199 57.6755 33.1539 57.8068 33.4108 57.8582C33.6677 57.8982 33.9331 57.8611 34.2072 57.7469C34.4812 57.6327 34.7523 57.4415 35.0206 57.1732Z" stroke="#1B1B1D" stroke-width="0.865614" mask="url(#path-3-outside-1_625_1267)"/>
<path d="M48.3105 47.5483C47.3914 48.4674 46.4095 49.0211 45.3648 49.2095C44.3201 49.3979 43.2726 49.2809 42.2222 48.8584C41.1775 48.4303 40.1928 47.7538 39.268 46.829C38.3432 45.9042 37.6667 44.9195 37.2386 43.8748C36.8104 42.8301 36.682 41.794 36.8532 40.7664C37.0245 39.7389 37.5497 38.7855 38.4288 37.9064C39.3137 37.0216 40.2955 36.4621 41.3745 36.2281C42.4534 35.994 43.5409 36.0654 44.637 36.4422C45.733 36.8075 46.752 37.4611 47.6939 38.4031C48.6187 39.3279 49.2695 40.3383 49.6463 41.4344C50.0288 42.5247 50.1144 43.6036 49.9032 44.6711C49.692 45.7387 49.1611 46.6977 48.3105 47.5483ZM47.6083 55.9571L34.2501 42.5989L36.3052 40.5438L42.6418 46.8804L42.9329 46.5892L49.9546 53.6109L47.6083 55.9571ZM45.8615 45.8528C46.3638 45.3505 46.6493 44.8139 46.7178 44.243C46.7863 43.6721 46.6864 43.0984 46.4181 42.5218C46.144 41.9396 45.7473 41.3887 45.2278 40.8692C44.714 40.3554 44.166 39.9672 43.5837 39.7046C42.9957 39.4363 42.4077 39.345 41.8198 39.4306C41.2318 39.5048 40.678 39.8017 40.1585 40.3212C39.6733 40.8064 39.3964 41.3173 39.3279 41.8539C39.2651 42.3848 39.3765 42.93 39.6619 43.4895C39.9473 44.0489 40.3698 44.6083 40.9292 45.1678C41.4887 45.7272 42.0481 46.1497 42.6075 46.4351C43.167 46.7205 43.7179 46.8262 44.2602 46.7519C44.8082 46.672 45.342 46.3723 45.8615 45.8528Z" stroke="#1B1B1D" stroke-width="0.865614" mask="url(#path-3-outside-1_625_1267)"/>
<path d="M60.5045 34.8405L56.1374 30.4734C55.9262 30.2622 55.6465 30.0053 55.2982 29.7027C54.9443 29.3944 54.5418 29.1347 54.0909 28.9235C53.6399 28.7123 53.1661 28.6323 52.6694 28.6837C52.1785 28.7294 51.6847 29.0005 51.188 29.4972C50.9882 29.697 50.8055 29.9425 50.64 30.2336C50.4744 30.5248 50.3831 30.8616 50.366 31.244C50.3431 31.6208 50.4402 32.049 50.6571 32.5285C50.8798 33.0023 51.2794 33.5275 51.8559 34.1041L49.8865 34.8062C49.1557 34.0755 48.6191 33.2421 48.2766 32.3058C47.9341 31.3696 47.8627 30.4077 48.0625 29.4201C48.2681 28.4268 48.8246 27.4763 49.7323 26.5687C50.4573 25.8437 51.1709 25.3756 51.873 25.1644C52.5752 24.9531 53.2403 24.9103 53.8682 25.0359C54.5019 25.1558 55.0784 25.367 55.5979 25.6696C56.1117 25.9664 56.5484 26.2718 56.9081 26.5858C57.2677 26.8998 57.5246 27.1338 57.6787 27.288L62.8679 32.4771L60.5045 34.8405ZM54.185 41.1599L41.8544 28.8293L43.9266 26.7571L50.2632 33.0936L50.5544 32.8025L56.5484 38.7966L54.185 41.1599Z" stroke="#1B1B1D" stroke-width="0.865614" mask="url(#path-3-outside-1_625_1267)"/>
<path d="M54.7287 19.5515L52.6736 17.4964L55.0027 15.1672L57.0578 17.2224L54.7287 19.5515ZM65.2611 30.0839L56.0131 20.8359L58.3422 18.5068L67.5902 27.7548L65.2611 30.0839Z" stroke="#1B1B1D" stroke-width="0.865614" mask="url(#path-3-outside-1_625_1267)"/>
<path d="M74.4902 21.3686C73.5311 22.3276 72.495 22.9356 71.3818 23.1925C70.2687 23.4494 69.1612 23.3923 68.0594 23.0212C66.9577 22.6501 65.9444 22.0022 65.0196 21.0774C64.0834 20.1412 63.4354 19.1165 63.0758 18.0033C62.7219 16.8844 62.679 15.7684 62.9473 14.6552C63.2157 13.542 63.8208 12.5145 64.7627 11.5726C65.853 10.4822 67.0433 9.84569 68.3334 9.66302C69.6236 9.46892 70.8481 9.74579 72.0069 10.4936L70.2944 13.4393C69.6778 13.0968 69.0641 12.9626 68.4533 13.0368C67.8482 13.1053 67.3316 13.3536 66.9034 13.7818C66.4125 14.2727 66.1299 14.7951 66.0557 15.3488C65.9758 15.8968 66.0671 16.4506 66.3297 17.01C66.5866 17.5638 66.9719 18.0975 67.4857 18.6113C68.2906 19.4162 69.1212 19.8929 69.9775 20.0413C70.8338 20.1783 71.6131 19.8957 72.3152 19.1936C72.8404 18.6684 73.1201 18.1489 73.1544 17.6351C73.1886 17.1213 73.0516 16.5733 72.7434 15.991L75.6205 14.1072C76.3398 15.3517 76.5995 16.6047 76.3997 17.8663C76.1999 19.1279 75.5634 20.2953 74.4902 21.3686Z" stroke="#1B1B1D" stroke-width="0.865614" mask="url(#path-3-outside-1_625_1267)"/>
</g>
</svg>
