<svg width="16" height="16" viewBox="0 0 16 16" fill="none" xmlns="http://www.w3.org/2000/svg">
<g opacity="0.5">
<path d="M8.79956 2.18965L7.99963 3.08363L7.20044 2.18965C6.88547 1.81706 6.49237 1.5175 6.0487 1.312C5.60503 1.10649 5.12153 1 4.63211 1C4.14269 1 3.65919 1.10649 3.21552 1.312C2.77185 1.5175 2.37875 1.81706 2.06378 2.18965C1.37713 2.99113 1 4.00969 1 5.06268C1 6.11568 1.37713 7.13424 2.06378 7.93571L7.99963 15L13.9362 7.93571C14.6229 7.13424 15 6.11568 15 5.06268C15 4.00969 14.6229 2.99113 13.9362 2.18965C13.6213 1.81706 13.2282 1.5175 12.7845 1.312C12.3408 1.10649 11.8573 1 11.3679 1C10.8785 1 10.395 1.10649 9.9513 1.312C9.50763 1.5175 9.11453 1.81706 8.79956 2.18965Z" fill="white" stroke="#BBBBBB" stroke-miterlimit="10"/>
</g>
</svg>
