<svg width="50" height="50" viewBox="0 0 50 50" fill="none" xmlns="http://www.w3.org/2000/svg">
<path d="M49.5 25C49.5 38.531 38.531 49.5 25 49.5C11.469 49.5 0.5 38.531 0.5 25C0.5 11.469 11.469 0.5 25 0.5C38.531 0.5 49.5 11.469 49.5 25Z" stroke="#DDDDDD"/>
<g clip-path="url(#clip0_853_24845)">
<path d="M26.1955 19.9123C25.5278 20.5662 24.8634 21.218 24.1514 21.915C23.1779 21.0316 21.9582 20.716 20.6185 20.925C19.7477 21.0607 18.9882 21.4658 18.3486 22.0831C16.9463 23.4362 16.5519 25.5219 17.3784 27.2284C18.2632 29.0555 20.0902 30.0186 22.1321 29.7342C23.8024 29.5015 25.0168 28.4156 25.3258 26.8233H21.3823V23.9878H28.2579C28.5831 26.0228 28.3595 27.9696 27.183 29.7278C25.2437 32.6268 21.1414 33.5296 17.8538 31.7628C15.1409 30.3041 13.7461 27.4988 14.0378 24.7042C14.3782 21.4496 16.5422 18.9491 19.5187 18.2381C21.9042 17.6682 24.0812 18.111 25.9945 19.6839C26.0496 19.7291 26.1058 19.7754 26.1555 19.8261C26.1771 19.8487 26.1836 19.8864 26.1944 19.9123H26.1955Z" fill="black"/>
<path d="M33.7506 26.2361V28.5039H31.9431V26.2458H29.6289V24.4435H31.8999V22.1531H33.7344V24.4025H36V26.2361H33.7506Z" fill="black"/>
</g>
<defs>
<clipPath id="clip0_853_24845">
<rect width="22" height="14.6667" fill="white" transform="translate(14 18)"/>
</clipPath>
</defs>
</svg>
