<svg width="45" height="32" viewBox="0 0 45 32" fill="none" xmlns="http://www.w3.org/2000/svg">
<g id="Master_mc_symbol">
<g id="Group">
<path id="Vector" d="M27.583 7.74512H18.3955V24.2553H27.583V7.74512Z" fill="#FF5F00"/>
<path id="Vector_2" d="M18.9783 16C18.9768 14.4099 19.3372 12.8404 20.032 11.4102C20.7268 9.97997 21.7378 8.72659 22.9887 7.7449C21.4397 6.52738 19.5794 5.77022 17.6205 5.55997C15.6616 5.34971 13.683 5.69484 11.9109 6.55591C10.1389 7.41699 8.64484 8.75926 7.59957 10.4293C6.5543 12.0994 6 14.0298 6 16C6 17.9702 6.5543 19.9006 7.59957 21.5707C8.64484 23.2407 10.1389 24.583 11.9109 25.444C13.683 26.3051 15.6616 26.6502 17.6205 26.44C19.5794 26.2297 21.4397 25.4726 22.9887 24.2551C21.7379 23.2734 20.7268 22.02 20.032 20.5898C19.3372 19.1596 18.9769 17.59 18.9783 16Z" fill="#EB001B"/>
<path id="Vector_3" d="M39.9774 16C39.9775 17.9701 39.4232 19.9006 38.378 21.5706C37.3328 23.2407 35.8388 24.5829 34.0668 25.444C32.2948 26.3051 30.3162 26.6502 28.3573 26.44C26.3984 26.2297 24.5382 25.4726 22.9893 24.2551C24.239 23.2724 25.2493 22.0188 25.944 20.5888C26.6387 19.1588 26.9996 17.5898 26.9996 16C26.9996 14.4102 26.6387 12.8411 25.944 11.4112C25.2493 9.98117 24.239 8.72758 22.9893 7.7449C24.5382 6.52737 26.3984 5.77022 28.3573 5.55997C30.3162 5.34971 32.2948 5.69485 34.0668 6.55594C35.8388 7.41702 37.3328 8.75929 38.378 10.4293C39.4232 12.0994 39.9775 14.0298 39.9774 16Z" fill="#F79E1B"/>
<path id="Vector_4" d="M38.9756 22.5064V22.1682H39.1119V22.0993H38.7646V22.1682H38.9011V22.5064H38.9756ZM39.6497 22.5064V22.0986H39.5433L39.4209 22.3791L39.2984 22.0986H39.1919V22.5064H39.267V22.1988L39.3819 22.464H39.4598L39.5746 22.1981V22.5064H39.6497Z" fill="#F79E1B"/>
</g>
</g>
</svg>
