<svg width="51" height="51" viewBox="0 0 51 51" fill="none" xmlns="http://www.w3.org/2000/svg">
<g id="local_activity">
<mask id="mask0_415_10707" style="mask-type:alpha" maskUnits="userSpaceOnUse" x="0" y="0" width="51" height="51">
<rect id="Bounding box" width="51" height="51" fill="#D9D9D9"/>
</mask>
<g mask="url(#mask0_415_10707)">
<path id="local_activity_2" d="M21.5687 31.2375L25.5 28.1562L29.325 31.1312L27.8375 26.35L31.9812 23.1625H27.0937L25.5 18.275L23.9062 23.1625H19.0187L23.0562 26.35L21.5687 31.2375ZM10.2 39.7375C9.31453 39.7375 8.56193 39.4276 7.94214 38.8078C7.32235 38.188 7.01245 37.4354 7.01245 36.55V32.8843C7.01245 32.601 7.07443 32.3354 7.19839 32.0875C7.32235 31.8395 7.50828 31.6447 7.7562 31.5031C8.8187 30.8302 9.6687 29.9802 10.3062 28.9531C10.9437 27.926 11.2625 26.775 11.2625 25.5C11.2625 24.225 10.9437 23.0739 10.3062 22.0468C9.6687 21.0197 8.8187 20.1697 7.7562 19.4968C7.50828 19.3552 7.32235 19.1604 7.19839 18.9125C7.07443 18.6645 7.01245 18.3989 7.01245 18.1156V14.45C7.01245 13.5645 7.32235 12.8119 7.94214 12.1921C8.56193 11.5723 9.31453 11.2625 10.2 11.2625H40.8C41.6854 11.2625 42.438 11.5723 43.0578 12.1921C43.6776 12.8119 43.9874 13.5645 43.9874 14.45V18.1156C43.9874 18.3989 43.9255 18.6645 43.8015 18.9125C43.6776 19.1604 43.4916 19.3552 43.2437 19.4968C42.1812 20.1697 41.3312 21.0197 40.6937 22.0468C40.0562 23.0739 39.7375 24.225 39.7375 25.5C39.7375 26.775 40.0562 27.926 40.6937 28.9531C41.3312 29.9802 42.1812 30.8302 43.2437 31.5031C43.4916 31.6447 43.6776 31.8395 43.8015 32.0875C43.9255 32.3354 43.9874 32.601 43.9874 32.8843V36.55C43.9874 37.4354 43.6776 38.188 43.0578 38.8078C42.438 39.4276 41.6854 39.7375 40.8 39.7375H10.2ZM10.2 38.25H40.8C41.2958 38.25 41.7031 38.0906 42.0218 37.7718C42.3406 37.4531 42.5 37.0458 42.5 36.55V32.8312C41.1895 32.052 40.1536 31.0161 39.3921 29.7234C38.6307 28.4307 38.25 27.0229 38.25 25.5C38.25 23.977 38.6307 22.5692 39.3921 21.2765C40.1536 19.9838 41.1895 18.9479 42.5 18.1687V14.45C42.5 13.9541 42.3406 13.5468 42.0218 13.2281C41.7031 12.9093 41.2958 12.75 40.8 12.75H10.2C9.70412 12.75 9.29683 12.9093 8.97808 13.2281C8.65933 13.5468 8.49995 13.9541 8.49995 14.45V18.1687C9.81037 18.9479 10.8463 19.9838 11.6078 21.2765C12.3692 22.5692 12.75 23.977 12.75 25.5C12.75 27.0229 12.3692 28.4307 11.6078 29.7234C10.8463 31.0161 9.81037 32.052 8.49995 32.8312V36.55C8.49995 37.0458 8.65933 37.4531 8.97808 37.7718C9.29683 38.0906 9.70412 38.25 10.2 38.25Z" fill="black"/>
</g>
</g>
</svg>
