<svg width="17" height="17" viewBox="0 0 17 17" fill="none" xmlns="http://www.w3.org/2000/svg">
<path d="M9.8435 1.77799L9.84365 1.77812L9.85274 1.76737C10.1881 1.37068 10.6068 1.05155 11.0796 0.832545C11.5524 0.613535 12.0678 0.5 12.5896 0.5C13.1114 0.5 13.6268 0.613535 14.0996 0.832545C14.5724 1.05155 14.9911 1.37068 15.3264 1.76737L15.3264 1.76738L15.3286 1.76988C16.0849 2.65272 16.5 3.77423 16.5 4.93326C16.5 6.09228 16.0849 7.2138 15.3286 8.09663L15.3285 8.09662L15.3255 8.10026L8.49957 16.2228L1.67453 8.10028L1.67455 8.10027L1.67144 8.09663C0.915089 7.21379 0.5 6.09228 0.5 4.93326C0.5 3.77423 0.915089 2.65272 1.67144 1.76988L1.67145 1.76989L1.67358 1.76737C2.00892 1.37068 2.42761 1.05155 2.90042 0.832545C3.37324 0.613535 3.88863 0.5 4.41042 0.5C4.93221 0.5 5.44759 0.613535 5.92041 0.832545C6.39322 1.05155 6.81192 1.37068 7.14726 1.76737L7.14711 1.76749L7.15634 1.77782L8.12678 2.86336L8.49937 3.28015L8.87216 2.86354L9.8435 1.77799Z" fill="white" stroke="black" stroke-miterlimit="10"/>
</svg>
