<svg width="30" height="30" viewBox="0 0 30 30" fill="none" xmlns="http://www.w3.org/2000/svg">
<circle cx="15" cy="15" r="14.5" stroke="#DDDDDD"/>
<path fill-rule="evenodd" clip-rule="evenodd" d="M13.6027 17.7095C13.593 17.7461 13.5784 17.7781 13.5687 17.8146C13.0487 19.7376 12.9904 20.1624 12.451 21.0577C12.1935 21.4825 11.9068 21.8845 11.5909 22.2682C11.5569 22.3139 11.5229 22.3687 11.45 22.355C11.3723 22.3413 11.3674 22.2728 11.3577 22.2134C11.2702 21.6287 11.2265 21.044 11.2459 20.4548C11.2751 19.6874 11.3723 19.4225 12.4267 15.2612C12.4413 15.1972 12.4267 15.147 12.4024 15.0876C12.1497 14.4481 12.1011 13.7995 12.3198 13.1417C12.796 11.7211 14.5114 11.6115 14.8078 12.7854C14.9924 13.5117 14.5065 14.4572 14.1275 15.8596C13.8165 17.0152 15.2645 17.8374 16.5037 16.9924C17.6456 16.2159 18.0878 14.3476 18.0052 13.023C17.84 10.3873 14.764 9.81635 12.8106 10.666C10.5753 11.6389 10.0651 14.2471 11.0758 15.4348C11.2022 15.5855 11.3042 15.6769 11.2605 15.8322C11.1973 16.0697 11.139 16.3118 11.0661 16.5493C11.0127 16.7275 10.8572 16.7914 10.6677 16.7183C10.2935 16.5767 9.98736 16.3529 9.73467 16.0606C8.87458 15.0602 8.63162 13.0869 9.76383 11.4151C11.0224 9.56055 13.3597 8.81143 15.4929 9.03982C18.0441 9.31389 19.6525 10.9492 19.9538 12.8083C20.0898 13.6533 19.9926 15.7408 18.7292 17.2162C17.2763 18.9109 14.9195 19.0251 13.8311 17.9836C13.7484 17.9059 13.6804 17.81 13.5978 17.7141L13.6027 17.7095Z" fill="#BBBBBB"/>
</svg>
